<?xml version="1.0" standalone="no"?>
<!DOCTYPE svg PUBLIC "-//W3C//DTD SVG 1.1//EN" "http://www.w3.org/Graphics/SVG/1.1/DTD/svg11.dtd" >
<svg xmlns="http://www.w3.org/2000/svg">
<metadata>Generated by IcoMoon</metadata>
<defs>
<font id="ClicktalePlus" horiz-adv-x="1024">
<font-face units-per-em="1024" ascent="960" descent="-64" />
<missing-glyph horiz-adv-x="1024" />
<glyph unicode="&#x20;" horiz-adv-x="512" d="" />
<glyph unicode="&#x21;" glyph-name="arrow-up" horiz-adv-x="1696" d="M915.2 868.267l684.8-828.8c41.6-48 6.4-124.8-57.6-124.8h-1379.2c-64 0-99.2 76.8-57.6 124.8l694.4 828.8c28.8 35.2 86.4 35.2 115.2 0z" />
<glyph unicode="&#x22;" glyph-name="arrow-down" horiz-adv-x="1696" d="M787.2-56.533l-681.6 828.8c-41.6 48-6.4 124.8 57.6 124.8h1379.2c64 0 99.2-76.8 57.6-124.8l-694.4-832c-32-35.2-86.4-35.2-118.4 3.2z" />
<glyph unicode="&#x23;" glyph-name="arrow-left" horiz-adv-x="609" d="M0 433.148l609.215 505.519v-1024z" />
<glyph unicode="&#x24;" glyph-name="arrow-right" horiz-adv-x="609" d="M0-85.333v1024l609.215-505.519z" />
<glyph unicode="&#x25;" glyph-name="arrow-right-big" horiz-adv-x="1503" d="M985.579 938.667c66.819 0 100.228-66.819 133.638-100.228l283.98-283.98c33.409-33.409 100.228-83.524 100.228-133.638s-50.114-66.819-66.819-100.228l-367.504-367.504c-17.259-22.585-44.209-37.009-74.528-37.009-9.154 0-18 1.315-26.362 3.766-32.625 10.090-56.398 40.574-56.398 76.61 0 22.224 9.041 42.335 23.646 56.858 33.413 16.708 50.118 50.118 83.527 66.823l133.638 133.638c35.712 19.259 64.264 47.812 82.995 82.454l-1235.621 1.070v167.047h1236.15l-283.98 283.98c0 16.705-16.705 16.705-16.705 33.409-2.426 6.727-3.829 14.489-3.829 22.58 0 26.416 14.955 49.339 36.86 60.764 0.379 16.885 17.083 16.885 17.083 33.589z" />
<glyph unicode="&#x26;" glyph-name="arrow-left-hollow" horiz-adv-x="581" d="M523.907 938.667l57.153-57.153-466.753-466.753 442.94-442.94-52.391-57.153-504.856 500.093 523.907 523.907z" />
<glyph unicode="&#x27;" glyph-name="arrow-right-hollow" horiz-adv-x="576" d="M52.391 938.667l-52.391-57.153 461.991-466.753-442.94-442.94 57.153-57.153 500.093 500.093-523.907 523.907z" />
<glyph unicode="&#x28;" glyph-name="calendar" d="M853.333 796.444h-113.778v34.133c0 11.378-11.378 22.756-28.444 22.756s-28.444-11.378-28.444-22.756v-34.133h-341.333v34.133c0 11.378-11.378 22.756-28.444 22.756s-28.444-11.378-28.444-22.756v-34.133h-113.778c-62.578 0-113.778-51.2-113.778-113.778v-512c0-62.578 51.2-113.778 113.778-113.778h682.667c62.578 0 113.778 51.2 113.778 113.778v512c0 62.578-51.2 113.778-113.778 113.778zM170.667 739.555h113.778v-91.022c0-11.378 11.378-22.756 28.444-22.756s28.444 11.378 28.444 22.756v91.022h341.333v-91.022c0-11.378 11.378-22.756 28.444-22.756s28.444 11.378 28.444 22.756v91.022h113.778c28.444 0 56.889-28.444 56.889-56.889v-113.778h-796.444v113.778c0 28.444 28.444 56.889 56.889 56.889zM853.333 113.778h-682.667c-28.444 0-56.889 28.444-56.889 56.889v341.333h796.444v-341.333c0-28.444-28.444-56.889-56.889-56.889z" />
<glyph unicode="&#x29;" glyph-name="checkbox-on" d="M896 960h-768c-70.4 0-128-57.6-128-128v-768c0-70.4 57.6-128 128-128h768c70.4 0 128 57.6 128 128v768c0 70.4-57.6 128-128 128zM748.8 531.2c-6.4-12.8-19.2-19.2-25.6-32-25.6-25.6-44.8-44.8-70.4-70.4s-57.6-51.2-83.2-83.2c-25.6-25.6-44.8-51.2-70.4-76.8s-51.2-57.6-96-64c-19.2 0-38.4 6.4-51.2 19.2 0 0-134.4 140.8-134.4 140.8-25.6 32-25.6 70.4 0 96s64 25.6 89.6 0l96-102.4 249.6 262.4c25.6 25.6 64 25.6 89.6 0s32-64 6.4-89.6z" />
<glyph unicode="&#x2a;" glyph-name="checkbox-off" d="M64 832v-768c0-32 25.6-64 64-64h768c32 0 64 25.6 64 64v768c0 32-25.6 64-64 64h-768c-38.4 0-64-25.6-64-64zM0 832c0 70.4 57.6 128 128 128h768c70.4 0 128-57.6 128-128v-768c0-70.4-57.6-128-128-128h-768c-70.4 0-128 57.6-128 128v768z" />
<glyph unicode="&#x2b;" glyph-name="clone" d="M992 768h-160v-64h128v-640h-640v64h-64v-96c0-19.2 12.8-32 32-32h704c19.2 0 32 12.8 32 32v704c0 19.2-12.8 32-32 32zM736 192h-704c-19.2 0-32 12.8-32 32v704c0 19.2 12.8 32 32 32h704c19.2 0 32-12.8 32-32v-704c0-19.2-12.8-32-32-32zM64 256h640v640h-640v-640z" />
<glyph unicode="&#x2c;" glyph-name="desktop" d="M827.733 768h-631.467c-38.4 0-68.267-29.867-68.267-68.267v-456.533c0-42.667 29.867-72.533 68.267-72.533h273.067v-42.667h-179.2c-12.8 0-21.333-8.533-21.333-21.333s8.533-21.333 21.333-21.333h439.467c12.8 0 21.333 8.533 21.333 21.333s-4.267 21.333-17.067 21.333h-179.2v42.667h273.067c38.4 0 68.267 29.867 68.267 68.267v460.8c0 38.4-29.867 68.267-68.267 68.267zM853.333 238.934c0-17.067-12.8-25.6-25.6-25.6h-631.467c-12.8 0-25.6 12.8-25.6 25.6v59.733h682.667v-59.733zM853.333 341.334h-682.667v358.4c0 12.8 12.8 25.6 25.6 25.6h631.467c12.8 0 25.6-12.8 25.6-25.6v-358.4z" />
<glyph unicode="&#x2d;" glyph-name="edit" d="M401.603 86.901l-250.64 250.64 474.359 474.359 250.64-250.64-474.359-474.359zM1002.995 752.574l-185.108 187.733c-18.379 18.379-47.262 18.379-64.328 1.313 0 0 0 0-1.313-1.313l-81.395-81.395 250.749-252.062 81.395 81.395c18.379 18.379 18.379 47.262 0 64.328zM10.503 4.267c-9.19-23.631 2.626-49.887 26.256-59.077 10.503-3.938 22.318-3.938 32.821 0l278.318 105.026-233.682 232.369-103.713-278.318z" />
<glyph unicode="&#x2e;" glyph-name="error" horiz-adv-x="1191" d="M600.615 938.667l-600.615-1024h1191.385zM541.538 564.513c-0.064 0.914-0.101 1.98-0.101 3.055 0 25.558 20.719 46.277 46.277 46.277 1.075 0 2.141-0.037 3.198-0.109l19.549 0.008c0.914 0.064 1.98 0.101 3.055 0.101 25.558 0 46.277-20.719 46.277-46.277 0-1.075-0.037-2.141-0.109-3.198l0.008-275.549c0.064-0.914 0.101-1.98 0.101-3.055 0-25.558-20.719-46.277-46.277-46.277-1.075 0-2.141 0.037-3.198 0.109l-19.549-0.008c-0.914-0.064-1.98-0.101-3.055-0.101-25.558 0-46.277 20.719-46.277 46.277 0 1.075 0.037 2.141 0.109 3.198zM600.615 3.282c-48.941 0-88.615 39.674-88.615 88.615s39.674 88.615 88.615 88.615c48.941 0 88.615-39.674 88.615-88.615s-39.674-88.615-88.615-88.615z" />
<glyph unicode="&#x2f;" glyph-name="exit2" d="M448 829.58h-320v-768h320v-128h-448v1024h448v-128zM768 157.58v160h-512v256h512v160l256-288-256-288z" />
<glyph unicode="&#x30;" glyph-name="filter" d="M853.333 768l-256-298.667v-384l-170.667 170.667v256l-256 256h682.667zM853.333 810.667h-682.667c-17.067 0-34.133-8.533-38.4-25.6-8.533-17.067-4.267-34.133 8.533-46.933l243.2-243.2v-238.933c0-12.8 4.267-21.333 12.8-29.867l170.667-170.667c8.533-8.533 17.067-12.8 29.867-12.8 4.267 0 12.8 0 17.067 4.267 17.067 8.533 25.6 21.333 25.6 38.4v366.933l247.467 285.867c12.8 12.8 12.8 29.867 4.267 46.933s-21.333 25.6-38.4 25.6v0zM853.333 725.334v0 0 0z" />
<glyph unicode="&#x31;" glyph-name="heatmap-manu" d="M981.333-68.266l25.6 25.6c21.333 21.333 21.333 59.733 0 81.067l-384 362.667c0 0 0 0-4.267 4.267 25.6 51.2 21.333 115.2-17.067 162.133-34.133 51.2-93.867 72.533-153.6 68.267l81.067-115.2c12.8-21.333 8.533-46.933-8.533-59.733l-59.733-42.667c-21.333-12.8-46.933-8.533-59.733 8.533l-81.067 115.2c-25.6-51.2-21.333-115.2 17.067-162.133 42.667-59.733 119.467-81.067 187.733-59.733 4.267-4.267 4.267-4.267 8.533-8.533l366.933-379.733c17.067-21.333 55.467-21.333 81.067 0zM904.533-21.333c-12.8 12.8-12.8 38.4 0 51.2s38.4 12.8 51.2 0c12.8-12.8 12.8-38.4 0-51.2s-34.133-12.8-51.2 0zM4.267 516.267v-136.533l93.867-12.8c8.533-51.2 29.867-102.4 59.733-145.067l-59.733-76.8 98.133-98.133 76.8 59.733c42.667-29.867 89.6-46.933 145.067-59.733l8.533-89.6h136.533l12.8 98.133c34.133 8.533 68.267 17.067 98.133 34.133l-93.867 102.4c-25.6-8.533-55.467-12.8-85.333-12.8-149.333 0-273.067 119.467-273.067 273.067s119.467 273.067 273.067 273.067c149.333 0 273.067-119.467 273.067-273.067 0-29.867-4.267-64-17.067-89.6l106.667-81.067c12.8 29.867 25.6 59.733 29.867 93.867l93.867 12.8v128l-93.867 12.8c-8.533 51.2-29.867 102.4-59.733 145.067l59.733 76.8-98.133 98.133-76.8-59.733c-42.667 29.867-89.6 46.933-145.067 59.733l-4.267 89.6h-136.533l-12.8-93.867c-51.2-12.8-102.4-34.133-145.067-59.733l-72.533 59.733-98.133-98.133 59.733-76.8c-29.867-42.667-46.933-89.6-59.733-140.8l-93.867-12.8z" />
<glyph unicode="&#x32;" glyph-name="info--hollow" d="M512 938.667c-282.77 0-512-229.23-512-512s229.23-512 512-512c282.77 0 512 229.23 512 512-1.045 282.349-229.652 510.956-511.901 512zM512-29.982c-252.2 0-456.649 204.449-456.649 456.649s204.449 456.649 456.649 456.649c252.2 0 456.649-204.449 456.649-456.649-0.524-251.989-204.66-456.125-456.598-456.649zM442.811 523.532h133.766v-318.27h-133.766v318.27zM442.811 703.424h133.766v-83.027h-133.766v83.027z" />
<glyph unicode="&#x33;" glyph-name="info" d="M512 938.667c-282.77 0-512-229.23-512-512s229.23-512 512-512c282.77 0 512 229.23 512 512s-229.23 512-512 512zM579.491 175.322h-134.982v321.164h134.982zM579.491 594.231h-134.982v83.782h134.982z" />
<glyph unicode="&#x34;" glyph-name="kpi" d="M375.467 341.333h-102.4l-119.467-164.978h-5.689v164.978h-91.022v-398.222h91.022v108.089l51.2 62.578 96.711-170.667h102.4l-147.911 238.933zM694.044 312.889c-11.378 11.378-28.444 17.067-45.511 22.756s-39.822 5.689-56.889 5.689h-136.533v-398.222h85.333v136.533h51.2c22.756 0 39.822 0 56.889 5.689s34.133 11.378 45.511 22.756c11.378 11.378 22.756 22.756 34.133 39.822s11.378 39.822 11.378 62.578c0 22.756-5.689 45.511-11.378 62.578-11.378 17.067-17.067 28.444-34.133 39.822zM585.956 147.911h-45.511v119.467h45.511c22.756 0 39.822-5.689 51.2-11.378 11.378-11.378 17.067-22.756 17.067-45.511 0-39.822-22.756-62.578-68.267-62.578zM796.444 341.333h113.778v-398.222h-113.778v398.222zM631.467 591.644c-147.911 159.289-182.044 164.978-256 221.867-22.756 28.444-45.511-5.689-45.511-22.756 22.756-164.978 56.889-295.822 85.333-352.711 68.267-164.978 364.089-5.689 216.178 153.6zM967.111 489.244c0 5.689 0 11.378 0 11.378 0 28.444-5.689 56.889-11.378 85.333-5.689 34.133-17.067 68.267-34.133 102.4-28.444 62.578-68.267 119.467-125.156 164.978-51.2 45.511-113.778 79.644-182.044 96.711-28.444 11.378-62.578 17.067-102.4 17.067-250.311 0-455.111-216.178-455.111-477.867 0-22.756 11.378-34.133 34.133-34.133 0 0 5.689 0 5.689 0s0 0 0 0h187.733v56.889h-159.289c5.689 210.489 176.356 386.844 386.844 386.844s381.156-176.356 386.844-386.844h-159.289v-56.889h187.733c0 0 5.689 0 5.689 0s5.689 0 5.689 0c0 0 5.689 0 5.689 0 17.067 0 22.756 17.067 22.756 34.133z" />
<glyph unicode="&#x35;" glyph-name="legend-dot" d="M992 426.667c0-265.097-214.903-480-480-480s-480 214.903-480 480c0 265.097 214.903 480 480 480s480-214.903 480-480z" />
<glyph unicode="&#x36;" glyph-name="drop-up" d="M202.224 245.936c-13.632-12.352-13.632-32.384 0-44.736 13.632-12.288 35.904-12.288 49.472 0l260.288 234.496 260.096-234.496c13.76-12.288 35.904-12.288 49.536 0 6.848 6.208 10.368 14.208 10.368 22.336s-3.52 16.256-10.368 22.4l-284.864 256.896c-13.76 12.224-35.776 12.224-49.536 0l-284.992-256.896z" />
<glyph unicode="&#x37;" glyph-name="magnifying" horiz-adv-x="1063" d="M1055.267 46.25l-267.074 260.56c36.624 59.411 58.405 131.363 58.626 208.387 0 233.904-189.567 423.471-423.41 423.471s-423.41-189.567-423.41-423.41c0-233.843 189.567-423.41 423.41-423.41 0.95-0.008 2.073-0.012 3.198-0.012 99.999 0 191.976 34.349 264.774 91.893l259.662-254.731c10.377-9.135 24.079-14.71 39.084-14.71s28.707 5.575 39.15 14.767c25.99 25.999 45.532 97.653 25.99 117.195zM592.774 476.173h-130.28v-123.766h-71.654v123.766h-136.794v71.654h136.794v136.794h71.654v-136.794h130.28z" />
<glyph unicode="&#x38;" glyph-name="applyRight-heatmap" horiz-adv-x="2048" d="M930.909 938.667h-930.909v-1024h2048v1024h-1117.091zM93.091 7.758v837.818h837.818v-837.818h-837.818z" />
<glyph unicode="&#x39;" glyph-name="external" horiz-adv-x="1117" d="M456.145 736.582l-65.164-65.164 176.873-186.182h-558.545v-83.782h549.236l-167.564-167.564 65.164-65.164 251.345 251.345c18.618 18.618 18.618 55.855 0 74.473l-251.345 242.036zM744.727 960v-83.782h223.418c37.236 0 55.855-27.927 55.855-55.855v-726.109c0-37.236-27.927-55.855-55.855-55.855h-223.418v-93.091h260.655c55.855 0 111.709 46.545 111.709 111.709v791.273c0 65.164-46.545 111.709-111.709 111.709h-260.655z" />
<glyph unicode="&#x3a;" glyph-name="mobile" d="M640 810.667h-256c-46.933 0-85.333-38.4-85.333-85.333v-597.333c0-46.933 38.4-85.333 85.333-85.333h256c46.933 0 85.333 38.4 85.333 85.333v597.333c0 46.933-38.4 85.333-85.333 85.333zM341.333 640h341.333v-426.667h-341.333v426.667zM384 768h256c25.6 0 42.667-17.067 42.667-42.667v-42.667h-341.333v42.667c0 25.6 21.333 42.667 42.667 42.667zM640 85.334h-256c-25.6 0-42.667 17.067-42.667 42.667v42.667h341.333v-42.667c0-25.6-21.333-42.667-42.667-42.667z" />
<glyph unicode="&#x3b;" glyph-name="more-option-hollow" horiz-adv-x="4681" d="M4681.143 426.667c0-282.77-229.23-512-512-512s-512 229.23-512 512c0 282.77 229.23 512 512 512s512-229.23 512-512zM1024 426.667c0-282.77-229.23-512-512-512s-512 229.23-512 512c0 282.77 229.23 512 512 512s512-229.23 512-512zM2852.571 426.667c0-282.77-229.23-512-512-512s-512 229.23-512 512c0 282.77 229.23 512 512 512s512-229.23 512-512z" />
<glyph unicode="&#x3c;" glyph-name="more-options" d="M512 938.667c-281.6 0-512-230.4-512-512s230.4-512 512-512 512 230.4 512 512-230.4 512-512 512zM329.143 375.467c-29.257 0-51.2 21.943-51.2 51.2s21.943 51.2 51.2 51.2 51.2-21.943 51.2-51.2-21.943-51.2-51.2-51.2zM512 375.467c-29.257 0-51.2 21.943-51.2 51.2s21.943 51.2 51.2 51.2 51.2-21.943 51.2-51.2-21.943-51.2-51.2-51.2zM694.857 375.467c-29.257 0-51.2 21.943-51.2 51.2s21.943 51.2 51.2 51.2 51.2-21.943 51.2-51.2-21.943-51.2-51.2-51.2z" />
<glyph unicode="&#x3d;" glyph-name="multiply-devices" d="M379.733 469.334c-8.533 25.6-34.133 42.667-64 42.667h-162.133c-38.4 0-68.267-29.867-68.267-68.267v-418.133c0-38.4 29.867-68.267 68.267-68.267h162.133c38.4 0 68.267 29.867 68.267 68.267v418.133c0 8.533 0 17.067-4.267 25.6zM341.333 25.6c0-12.8-12.8-25.6-25.6-25.6h-162.133c-12.8 0-25.6 12.8-25.6 25.6v17.067h213.333v-17.067zM341.333 256v-170.667h-213.333v358.4c0 12.8 12.8 25.6 25.6 25.6h162.133c12.8 0 25.6-12.8 25.6-25.6v-187.733zM870.4 853.334h-631.467c-38.4 0-68.267-29.867-68.267-64v-234.667h42.667v230.4c0 12.8 12.8 25.6 25.6 25.6h631.467c12.8 0 25.6-12.8 25.6-25.6v-315.733h-469.333v-42.667h469.333v-59.733c0-12.8-12.8-25.6-25.6-25.6h-443.733v-42.667h85.333v-42.667h-85.333v-42.667h341.333c12.8 0 21.333 8.533 21.333 21.333s-8.533 21.333-21.333 21.333h-213.333v42.667h315.733c38.4 0 68.267 29.867 68.267 64v426.667c0 34.133-29.867 64-68.267 64z" />
<glyph unicode="&#x3e;" glyph-name="duplicate_full" d="M934.4 704h-166.4v-64h128v-512h-512v64h-64v-102.4c0-12.8 12.8-25.6 25.6-25.6h582.4c12.8 0 25.6 12.8 25.6 25.6v588.8c6.4 12.8-6.4 25.6-19.2 25.6zM678.4 256h-588.8c-12.8 0-25.6 12.8-25.6 25.6v588.8c0 12.8 12.8 25.6 25.6 25.6h582.4c19.2 0 32-12.8 32-25.6v-582.4c0-19.2-12.8-32-25.6-32z" />
<glyph unicode="&#x3f;" glyph-name="old-logo" d="M960 938.667h-896c-38.4 0-64-25.6-64-64v-896c0-38.4 25.6-64 64-64h896c38.4 0 64 25.6 64 64v896c0 38.4-25.6 64-64 64zM332.8 439.467c0 0 0-6.4 0-12.8 0-115.2 96-211.2 211.2-217.6v0c64 0 115.2 25.6 153.6 70.4 6.4 12.8 19.2 19.2 38.4 19.2 0 0 0 0 0 0 25.6 0 51.2-19.2 51.2-51.2 0-12.8-6.4-25.6-19.2-38.4-57.6-64-140.8-102.4-236.8-102.4 0 0 0 0-6.4 0-179.2 0-326.4 147.2-326.4 326.4s147.2 326.4 326.4 326.4c89.6 0 172.8-32 230.4-89.6 12.8-6.4 19.2-25.6 19.2-38.4 0 0 0 0 0 0 0-32-25.6-51.2-51.2-51.2-12.8 0-25.6 6.4-38.4 19.2-38.4 38.4-96 64-153.6 70.4-108.8-12.8-198.4-108.8-198.4-224 0 0 0-6.4 0-6.4z" />
<glyph unicode="&#x40;" glyph-name="plusBTN" d="M512 938.667c-281.6 0-512-230.4-512-512s230.4-512 512-512 512 230.4 512 512-230.4 512-512 512zM716.8 375.467h-153.6v-153.6h-102.4v153.6h-153.6v102.4h153.6v153.6h102.4v-153.6h153.6v-102.4z" />
<glyph unicode="&#x41;" glyph-name="plusBTN-hollow" d="M563.2 631.467h-102.4v-153.6h-153.6v-102.4h153.6v-153.6h102.4v153.6h153.6v102.4h-153.6zM512 938.667c-281.6 0-512-230.4-512-512s230.4-512 512-512 512 230.4 512 512-230.4 512-512 512zM512-39.253c-256 0-465.92 209.92-465.92 465.92s209.92 465.92 465.92 465.92 465.92-209.92 465.92-465.92-209.92-465.92-465.92-465.92z" />
<glyph unicode="&#x42;" glyph-name="question-hollow" d="M467.088 340.211v17.965c-0.082 2.023-0.128 4.397-0.128 6.783 0 45.719 17.078 87.448 45.203 119.158 24.013 19.531 40.522 47.847 44.684 80.035 0.066 27.568-17.899 45.533-53.829 45.533-30.413-0.712-58.358-10.704-81.268-27.24l-26.522 90.117c36.181 22.627 80.134 36.046 127.22 36.046 2.643 0 5.277-0.042 7.9-0.126 107.406 0.010 152.319-53.885 152.319-125.745-2.901-55.179-30.283-103.421-71.402-134.407-25.388-26.269-41.856-60.505-45.323-98.5l-0.047-18.602-98.807 8.982zM449.123 232.421c-0.152 1.686-0.239 3.647-0.239 5.628 0 36.71 29.76 66.47 66.47 66.47 1.981 0 3.942-0.087 5.879-0.256 1.435 0.17 3.396 0.256 5.377 0.256 36.71 0 66.47-29.76 66.47-66.47 0-1.981-0.087-3.942-0.256-5.879 0.17-1.435 0.256-3.396 0.256-5.377 0-36.71-29.76-66.47-66.47-66.47-1.981 0-3.942 0.087-5.879 0.256-1.435-0.17-3.396-0.256-5.377-0.256-36.71 0-66.47 29.76-66.47 66.47 0 1.981 0.087 3.942 0.256 5.879zM512 960c-282.77 0-512-229.23-512-512-0.025-1.881-0.040-4.103-0.040-6.327 0-279.297 226.415-505.712 505.712-505.712 2.225 0 4.446 0.014 6.664 0.043 282.433-0.003 511.663 229.227 511.663 511.997 0.025 1.881 0.040 4.103 0.040 6.327 0 279.297-226.415 505.712-505.712 505.712-2.225 0-4.446-0.014-6.664-0.043zM512 34.807c-227.185 2.507-410.686 186.008-413.191 412.954 2.505 227.423 186.006 410.924 412.952 413.429 227.423-2.505 410.924-186.006 413.429-412.952 0.003-0.505 0.003-0.822 0.003-1.138 0-227.704-184.591-412.295-412.295-412.295-0.316 0-0.632 0-0.948 0.001z" />
<glyph unicode="&#x43;" glyph-name="question" d="M512 938.667c-281.6 0-512-230.4-512-512s230.4-512 512-512 512 230.4 512 512-230.4 512-512 512zM563.2 136.534h-110.933v110.933h110.933v-110.933zM640 426.667c-34.133-25.6-68.267-42.667-76.8-85.333v-25.6h-110.933v25.6c8.533 68.267 34.133 102.4 68.267 119.467 34.133 25.6 59.733 42.667 59.733 85.333 0 51.2-25.6 76.8-68.267 76.8-59.733 0-76.8-42.667-76.8-102.4h-119.467c0 110.933 76.8 196.267 187.733 196.267 145.067 0 196.267-93.867 196.267-153.6 8.533-76.8-25.6-110.933-59.733-136.533z" />
<glyph unicode="&#x44;" glyph-name="radio-BTN-on" d="M512 960c-281.6 0-512-230.4-512-512s230.4-512 512-512 512 230.4 512 512-230.4 512-512 512zM512 256c-108.8 0-192 83.2-192 192s83.2 192 192 192 192-83.2 192-192-83.2-192-192-192z" />
<glyph unicode="&#x45;" glyph-name="radio-BTN" d="M512 896c249.6 0 448-198.4 448-448s-198.4-448-448-448-448 198.4-448 448 198.4 448 448 448zM512 960c-281.6 0-512-230.4-512-512s230.4-512 512-512 512 230.4 512 512-230.4 512-512 512v0z" />
<glyph unicode="&#x46;" glyph-name="recording-desktop-BTN-press" horiz-adv-x="1122" d="M975.238 938.667h-828.952c-80.791 0-146.286-65.494-146.286-146.286v-731.429c0-80.791 65.494-146.286 146.286-146.286h828.952c80.791 0 146.286 65.494 146.286 146.286v731.429c0 80.791-65.494 146.286-146.286 146.286zM1072.762 60.953c0-53.861-43.663-97.524-97.524-97.524h-828.952c-53.861 0-97.524 43.663-97.524 97.524v731.429c0 53.861 43.663 97.524 97.524 97.524h828.952c53.861 0 97.524-43.663 97.524-97.524zM195.048 207.238h731.429v487.619h-731.429zM243.81 646.096h633.905v-390.095h-633.905zM390.095 158.477h331.581v-48.762h-331.581v48.762zM487.619 334.019l160.914 126.781-160.914 87.771v-214.552z" />
<glyph unicode="&#x47;" glyph-name="recording-desktop-BTN" horiz-adv-x="1122" d="M975.238 938.667h-828.952c-80.791 0-146.286-65.494-146.286-146.286v-731.429c0-80.791 65.494-146.286 146.286-146.286h828.952c80.791 0 146.286 65.494 146.286 146.286v731.429c0 80.791-65.494 146.286-146.286 146.286zM721.676 109.715h-331.581v48.762h331.581zM926.476 207.238h-731.429v487.619h731.429zM877.714 646.096h-633.905v-390.095h633.905zM487.619 334.019v214.552l160.914-87.771z" />
<glyph unicode="&#x48;" glyph-name="recording-desktop" horiz-adv-x="1280" d="M0 938.667v-853.333h1280v853.333zM1194.667 170.667h-1109.333v682.667h1109.333zM341.333-0h580.267v-85.333h-580.267v85.333zM793.6 529.067l-281.6-221.867v375.467l281.6-153.6z" />
<glyph unicode="&#x49;" glyph-name="recording-mobile-BTN-press" horiz-adv-x="1122" d="M975.238 938.667h-828.952c-80.791 0-146.286-65.494-146.286-146.286v-731.429c0-80.791 65.494-146.286 146.286-146.286h828.952c80.791 0 146.286 65.494 146.286 146.286v731.429c0 80.791-65.494 146.286-146.286 146.286zM1072.762 60.953c0-53.861-43.663-97.524-97.524-97.524h-828.952c-53.861 0-97.524 43.663-97.524 97.524v731.429c0 53.861 43.663 97.524 97.524 97.524h828.952c53.861 0 97.524-43.663 97.524-97.524zM487.619 353.524l141.41 121.905-141.41 121.905v-243.81zM341.333 60.953h438.857v682.667h-438.857zM560.762 114.591c-26.93 0-48.762 21.831-48.762 48.762s21.831 48.762 48.762 48.762c26.118-1.929 46.833-22.644 48.752-48.588-4.866-34.307-24.371-48.936-48.752-48.936zM385.219 694.857h346.21v-443.733h-346.21z" />
<glyph unicode="&#x4a;" glyph-name="recording-moblie-BTN" horiz-adv-x="1122" d="M731.429 694.857h-346.21v-443.733h346.21zM487.619 353.524v243.81l141.41-121.905zM560.762 212.115c-26.93 0-48.762-21.831-48.762-48.762s21.831-48.762 48.762-48.762c24.381 0 43.886 14.629 48.762 48.762-1.929 26.118-22.644 46.833-48.588 48.752zM975.238 938.667h-828.952c-80.791 0-146.286-65.494-146.286-146.286v-731.429c0-80.791 65.494-146.286 146.286-146.286h828.952c80.791 0 146.286 65.494 146.286 146.286v731.429c0 80.791-65.494 146.286-146.286 146.286zM780.19 60.953h-438.857v682.667h438.857z" />
<glyph unicode="&#x4b;" glyph-name="recording-moblie" horiz-adv-x="658" d="M431.543 536.381l-212.114-182.857v365.714l212.114-182.857zM0 938.667v-1024h658.286v1024zM329.143-4.876c-39.177 2.894-70.249 33.966-73.127 72.882 2.878 39.437 33.951 70.51 72.867 73.388 39.437-2.878 70.51-33.951 73.388-72.867-7.299-51.461-36.556-73.404-73.127-73.404zM585.143 199.924h-519.314v665.6h519.314z" />
<glyph unicode="&#x4c;" glyph-name="recording" d="M961.422 455.111c0-250.311-204.8-455.111-455.111-455.111s-455.111 204.8-455.111 455.111 204.8 455.111 455.111 455.111 455.111-204.8 455.111-455.111zM398.222 682.667v-483.556l318.578 238.933-318.578 244.622z" />
<glyph unicode="&#x4d;" glyph-name="regenerate" d="M887.467 637.155c-11.378 11.378-22.756 17.067-39.822 17.067-11.378 0-28.444-5.689-34.133-17.067-11.378-5.689-17.067-22.756-17.067-39.822 0-11.378 5.689-28.444 17.067-34.133 28.444-34.133 51.2-79.644 51.2-130.844 0 0 0 0 0 0s0 0 0 0c0-102.4-85.333-187.733-187.733-187.733 0 0 0 0 0 0h-210.489v147.911l-193.422-193.422 193.422-199.111v130.844h199.111c0 0 0 0 0 0 164.978 0 301.511 136.533 301.511 301.511 0 0 0 0 0 0 0 79.644-34.133 147.911-79.644 204.8v0zM142.222 278.755c11.378-11.378 22.756-17.067 39.822-17.067 11.378 0 28.444 5.689 34.133 17.067 11.378 5.689 17.067 17.067 17.067 34.133 0 11.378-5.689 28.444-17.067 34.133-28.444 39.822-45.511 79.644-45.511 130.844 0 0 0 0 0 0s0 0 0 0c0 102.4 85.333 187.733 187.733 187.733 0 0 0 0 0 0h199.111v-147.911l193.422 193.422-187.733 204.8v-130.844h-199.111c0 0 0 0 0 0-164.978 0-301.511-136.533-301.511-301.511 0 0 0 0 0 0 5.689-79.644 34.133-147.911 79.644-204.8v0z" />
<glyph unicode="&#x4e;" glyph-name="search" d="M750.933 271.644c136.533 164.978 125.156 415.289-28.444 568.889-79.644 73.956-187.733 119.467-301.511 119.467s-216.178-45.511-301.511-125.156c-73.956-79.644-119.467-182.044-119.467-295.822s45.511-216.178 125.156-301.511c79.644-79.644 187.733-125.156 301.511-125.156 96.711 0 193.422 34.133 267.378 96.711l273.067-273.067 56.889 56.889-273.067 278.756zM665.6 294.4c-62.578-62.578-147.911-102.4-238.933-102.4s-176.356 34.133-238.933 102.4c-68.267 68.267-108.089 153.6-108.089 244.622s34.133 176.356 102.4 238.933c62.578 62.578 147.911 102.4 238.933 102.4s176.356-34.133 238.933-102.4c136.533-130.844 136.533-347.022 5.689-483.556z" />
<glyph unicode="&#x4f;" glyph-name="share" d="M779.378 290.133c-51.2 0-96.711-22.756-130.844-62.578l-307.2 164.978c5.689 17.067 11.378 34.133 11.378 56.889 0 17.067-5.689 39.822-11.378 56.889l307.2 176.356c34.133-39.822 79.644-62.578 130.844-62.578 96.711 0 170.667 79.644 170.667 170.667s-79.644 170.667-170.667 170.667-170.667-79.644-170.667-170.667c0-11.378 0-22.756 5.689-34.133l-324.267-182.044c-34.133 28.444-73.956 45.511-119.467 45.511-96.711 0-170.667-79.644-170.667-170.667s79.644-170.667 170.667-170.667c45.511 0 85.333 17.067 119.467 45.511l318.578-170.667c0-11.378-5.689-22.756-5.689-34.133 0-96.711 79.644-170.667 170.667-170.667s170.667 79.644 170.667 170.667-68.267 170.667-164.978 170.667z" />
<glyph unicode="&#x50;" glyph-name="trafficSources-arrow1" horiz-adv-x="1593" d="M1058.388 430.488l-91.701 508.179-393.552-336.239 156.657-57.313c-49.672-191.045-309.493-294.209-462.328-294.209h-267.463v-152.836h267.463c213.97 0 565.493 191.045 615.164 393.552zM1146.269 434.309v-183.403h-1146.269v-152.836h1146.269v-183.403l447.045 259.821z" />
<glyph unicode="&#x51;" glyph-name="trafficSources-arrow2" horiz-adv-x="1817" d="M1817.055 210.973l-509.821 296.306v-209.157h-361.668c-353.564 0.496-640.049 286.981-640.545 640.497l-174.298 0.048c0.99-449.627 365.217-813.854 814.749-814.842h361.762v-209.157zM1307.234 507.28v-209.157h-1307.234v-174.298h1307.234v-209.157l509.821 296.306z" />
<glyph unicode="&#x52;" glyph-name="trash" d="M694.857 146.286c-21.943 0-36.571 21.943-36.571 43.886v351.086c0 21.943 14.629 43.886 36.571 43.886s36.571-21.943 36.571-43.886v-351.086c0-21.943-14.629-43.886-36.571-43.886zM548.571 146.286c-21.943 0-36.571 21.943-36.571 43.886v351.086c0 21.943 14.629 43.886 36.571 43.886s36.571-21.943 36.571-43.886v-351.086c0-21.943-14.629-43.886-36.571-43.886zM402.286 146.286c-21.943 0-36.571 21.943-36.571 43.886v351.086c0 21.943 14.629 43.886 36.571 43.886s36.571-21.943 36.571-43.886v-351.086c0-21.943-14.629-43.886-36.571-43.886zM987.429 804.571h-182.857v36.571c0 58.514-36.571 109.714-87.771 109.714h-336.457c-51.2 0-87.771-51.2-87.771-109.714v-36.571h-182.857c-21.943 0-36.571-14.629-36.571-36.571s14.629-36.571 36.571-36.571h36.571v-804.571h804.571v804.571h36.571c21.943 0 36.571 14.629 36.571 36.571s-14.629 36.571-36.571 36.571zM365.714 841.143c0 21.943 14.629 36.571 29.257 36.571h314.514c7.314 0 21.943-14.629 21.943-36.571v-36.571h-365.714v36.571zM877.714 0h-658.286v731.429h658.286v-731.429z" />
<glyph unicode="&#x53;" glyph-name="V" horiz-adv-x="1430" d="M1404.826 913.279c-15.252 14.959-36.168 24.192-59.24 24.192s-43.987-9.233-59.253-24.205l-804.8-804.8-337.666 322.433c-15.252 14.959-36.168 24.192-59.24 24.192s-43.987-9.233-59.253-24.205c-14.945-15.239-24.178-36.155-24.178-59.226s9.233-43.987 24.205-59.253l389.276-372.35c14.15-15.635 34.519-25.416 57.173-25.416 0.727 0 1.451 0.010 2.173 0.030l16.819-0.002c23.099 1.061 43.798 10.54 59.27 25.417l854.714 854.715c14.959 15.252 24.192 36.168 24.192 59.24s-9.233 43.987-24.205 59.253z" />
<glyph unicode="&#x54;" glyph-name="X-btn" d="M512 938.667c-282.77 0-512-229.23-512-512s229.23-512 512-512c282.77 0 512 229.23 512 512s-229.23 512-512 512zM733.529 258.873l-60.832-60.832-165.766 162.725-158.162-160.19-60.832 60.832 160.697 160.19-163.232 162.218 60.832 60.832 160.697-162.218 165.766 165.766 60.832-60.832-163.232-165.766z" />
<glyph unicode="&#x55;" glyph-name="x" d="M964.267 819.2l-55.467 55.467-396.8-396.8-396.8 401.067-55.467-55.467 401.067-396.8-396.8-396.8 55.467-55.467 392.533 396.8 392.533-392.533 55.467 55.467-392.533 392.533z" />
<glyph unicode="&#x56;" glyph-name="arrow-up-hollow" horiz-adv-x="1728" d="M860.8 493.867l588.8-524.8v291.2l-588.8 528-582.4-521.6v-294.4z" />
<glyph unicode="&#x57;" glyph-name="HM-background-page" horiz-adv-x="1902" d="M1755.429 938.667h-1609.143c-80.791 0-146.286-65.494-146.286-146.286v-731.429c0-80.791 65.494-146.286 146.286-146.286h1609.143c80.791 0 146.286 65.494 146.286 146.286v731.429c0 80.791-65.494 146.286-146.286 146.286zM380.343 821.638c16.158 0 29.257-13.099 29.257-29.257s-13.099-29.257-29.257-29.257c-16.158 0-29.257 13.099-29.257 29.257s13.099 29.257 29.257 29.257zM263.314 821.638c16.158 0 29.257-13.099 29.257-29.257s-13.099-29.257-29.257-29.257c-16.158 0-29.257 13.099-29.257 29.257s13.099 29.257 29.257 29.257zM146.286 821.638c16.158 0 29.257-13.099 29.257-29.257s-13.099-29.257-29.257-29.257c-16.158 0-29.257 13.099-29.257 29.257s13.099 29.257 29.257 29.257zM1843.2 60.953c0-48.475-39.297-87.771-87.771-87.771h-1609.143c-48.475 0-87.771 39.297-87.771 87.771v614.4h1784.686z" />
<glyph unicode="&#x58;" glyph-name="path-quantification-icon" d="M284.444 142.222c0-78.547-63.675-142.222-142.222-142.222s-142.222 63.675-142.222 142.222c0 78.547 63.675 142.222 142.222 142.222s142.222-63.675 142.222-142.222zM910.222 824.889c0-78.547-63.675-142.222-142.222-142.222s-142.222 63.675-142.222 142.222c0 78.547 63.675 142.222 142.222 142.222s142.222-63.675 142.222-142.222zM250.311 659.911c5.689 22.756 22.756 45.511 45.511 62.578l-34.133 51.2c-39.822-28.444-62.578-56.889-73.956-96.711 0-5.689 0-11.378 0-11.378l62.578-11.378c0 0 0 0 0 5.689zM648.533 790.755h5.689v62.578h-5.689c-39.822 0-79.644 0-113.778-5.689l5.689-62.578c34.133 5.689 68.267 5.689 108.089 5.689zM773.689 472.178l-22.756-62.578c34.133-11.378 56.889-28.444 73.956-56.889l51.2 34.133c-22.756 39.822-56.889 68.267-102.4 85.333zM466.489 779.378l-11.378 62.578c-45.511-11.378-85.333-17.067-119.467-28.444l22.756-62.578c28.444 11.378 68.267 17.067 108.089 28.444zM688.356 113.778l11.378-62.578c45.511 11.378 85.333 28.444 119.467 56.889l-39.822 51.2c-22.756-22.756-56.889-34.133-91.022-45.511zM568.889 489.244v-62.578c17.067 0 39.822 0 56.889 0 22.756 0 39.822 0 56.889 0l5.689 62.578c-17.067 0-39.822 0-62.578 0-17.067 0-34.133 0-56.889 0zM841.956 295.822c0-5.689 0-5.689 0-11.378 0-28.444-5.689-56.889-22.756-79.644l56.889-34.133c22.756 34.133 28.444 73.956 28.444 113.778 0 5.689 0 11.378 0 17.067l-62.578-5.689zM597.333 108.089c-28.444 0-56.889 5.689-91.022 5.689l-5.689-62.578c34.133-5.689 68.267-5.689 96.711-5.689 5.689 0 17.067 0 22.756 0v0 62.578c-5.689 0-17.067 0-22.756 0zM250.311 591.644l-56.889-22.756c17.067-39.822 51.2-73.956 96.711-96.711l28.444 56.889c-34.133 17.067-56.889 39.822-68.267 62.578zM307.2 73.955c39.822-5.689 79.644-11.378 113.778-17.067l5.689 62.578c-34.133 5.689-73.956 11.378-113.778 11.378l-5.689-56.889zM381.156 512l-5.689-62.578c17.067 0 96.711-11.378 113.778-11.378l5.689 62.578c-11.378 5.689-91.022 11.378-113.778 11.378z" />
<glyph unicode="&#x59;" glyph-name="eye" d="M1004.8 467.2c-12.8 12.8-249.6 268.8-492.8 268.8s-480-256-492.8-268.8l-19.2-19.2 19.2-25.6c12.8-12.8 249.6-262.4 492.8-262.4s480 249.6 492.8 262.4l19.2 25.6-19.2 19.2zM428.8 601.6c51.2 0 96-44.8 96-96s-44.8-96-96-96c-51.2 0-96 44.8-96 96s44.8 96 96 96v0zM512 224c-179.2 0-364.8 166.4-422.4 224 38.4 38.4 83.2 76.8 134.4 108.8 12.8-134.4 128-243.2 268.8-243.2 147.2 0 268.8 121.6 268.8 268.8 0 0 0 0 0 0 0 6.4 0 6.4 0 12.8 70.4-44.8 128-89.6 185.6-140.8-70.4-64-256-230.4-435.2-230.4v0z" />
<glyph unicode="&#x5a;" glyph-name="arrow-down-hollow" horiz-adv-x="1728" d="M867.2 260.267l-588.8 528v-294.4l588.8-524.8 582.4 518.4v294.4z" />
<glyph unicode="&#x5b;" glyph-name="apple" horiz-adv-x="834" d="M696.212 394.611c0.992 82.191 44.559 153.991 109.633 194.477-41.275 60.178-108.979 99.344-185.962 102.146-80.34 8.139-156.192-45.138-196.376-45.138s-102.942 45.15-168.861 45.15c-91.26-3.192-169.796-54.715-211.099-129.641-90.954-157.964-23.68-390.034 64.362-517.357 45.15-62.307 94.363-132.289 161.637-129.58s90.3 41.989 167.958 41.989 100.233-41.989 168.861-40.635 113.778 63.21 156.67 125.517c28.831 41.938 52.895 90.254 69.753 141.83-80.293 39.137-136.306 118.615-136.575 211.208zM567.534 775.224c33.519 39.152 53.92 90.401 53.92 146.415 0 5.992-0.233 11.93-0.692 17.805-60.429-6.814-113.242-35.527-150.522-78.168-34.438-38.177-55.367-88.645-55.367-144.002 0-5.187 0.184-10.332 0.545-15.427 0.746 0.673 1.673 0.667 2.601 0.667 60.5 0 114.398 28.265 149.211 72.31z" />
<glyph unicode="&#x5c;" glyph-name="visit" d="M512 908.071c-250.311 0-455.111-204.8-455.111-455.111s204.8-455.111 455.111-455.111 455.111 204.8 455.111 455.111c0 256-204.8 455.111-455.111 455.111zM512 868.248c142.222 0 273.067-73.956 347.022-187.733-17.067 5.689-34.133 5.689-51.2 5.689-45.511 0-91.022-17.067-130.844-51.2-39.822-28.444-68.267-73.956-68.267-125.156 0-39.822 11.378-73.956 34.133-102.4s51.2-45.511 85.333-45.511c17.067 0 34.133 11.378 39.822 17.067 17.067 11.378 22.756 11.378 34.133 0 17.067-17.067 11.378-22.756 0-34.133-5.689-11.378-17.067-22.756-17.067-39.822 0-11.378 5.689-17.067 11.378-28.444s11.378-17.067 22.756-28.444c-28.444-39.822-45.511-79.644-51.2-125.156-68.267-56.889-159.289-91.022-256-91.022-51.2 0-102.4 11.378-147.911 28.444 22.756 28.444 39.822 62.578 45.511 96.711 11.378 22.756 11.378 45.511 17.067 68.267h45.511c5.689 0 11.378 5.689 17.067 11.378 22.756 45.511 68.267 91.022 73.956 136.533 0 22.756-22.756 39.822-39.822 51.2s-34.133 17.067-45.511 22.756c-62.578 79.644-147.911 136.533-187.733 164.978-17.067 17.067-22.756 34.133-17.067 51.2 5.689 22.756 17.067 45.511 39.822 68.267 22.756 17.067 51.2 17.067 85.333 11.378s68.267-22.756 102.4-34.133c17.067-5.689 34.133 0 39.822 11.378 22.756 17.067 34.133 45.511 39.822 68.267 5.689 28.444 0 51.2-34.133 56.889s-73.956 0-102.4 0c-5.689 0-5.689 5.689-11.378 11.378 28.444 11.378 56.889 11.378 79.644 11.378v0zM153.6 663.448c5.689-5.689 5.689-5.689 5.689-5.689-5.689-11.378-11.378-28.444-11.378-39.822s5.689-22.756 11.378-28.444c11.378-11.378 22.756-17.067 34.133-22.756 5.689-5.689 0-11.378 0-17.067-5.689-5.689-5.689-11.378-11.378-22.756-11.378-17.067-22.756-34.133-22.756-56.889 0-17.067 11.378-34.133 17.067-51.2 28.444-51.2 62.578-85.333 85.333-130.844 0-5.689 0-5.689 0-5.689-5.689-45.511-17.067-91.022-28.444-130.844-85.333 73.956-142.222 187.733-142.222 312.889 5.689 68.267 22.756 136.533 62.578 199.111v0z" />
<glyph unicode="&#x5d;" glyph-name="android" horiz-adv-x="896" d="M834.822 614.942c-0.269 0.004-0.587 0.007-0.905 0.007-33.008 0-59.796-26.632-60.048-59.581v-254.218c0-33.788 27.39-61.178 61.178-61.178s61.178 27.39 61.178 61.178v254.194c-0.247 32.976-27.037 59.613-60.048 59.613-0.477 0-0.952-0.006-1.427-0.017zM60.952 614.942c-0.269 0.004-0.587 0.007-0.905 0.007-33.008 0-59.796-26.632-60.048-59.581v-254.218c0.252-32.973 27.040-59.605 60.048-59.605 0.318 0 0.636 0.002 0.952 0.007 0.221-0.005 0.539-0.007 0.857-0.007 33.008 0 59.796 26.632 60.048 59.581v254.218c-0.252 32.973-27.040 59.605-60.048 59.605-0.318 0-0.636-0.002-0.952-0.007zM167.055 614.942h-4.515v-436.148c0.506-34.613 28.559-62.508 63.186-62.758h45.174c-1.438-4.72-2.265-10.146-2.265-15.765 0-0.331 0.003-0.661 0.009-0.99l-0.001-125.467c0-33.788 27.39-61.178 61.178-61.178s61.178 27.39 61.178 61.178v125.968c0.003 0.207 0.004 0.451 0.004 0.696 0 5.703-0.826 11.214-2.365 16.418l113.43-0.409c-1.435-4.795-2.262-10.306-2.262-16.009 0-0.245 0.002-0.489 0.005-0.733v-125.48c0-33.788 27.39-61.178 61.178-61.178s61.178 27.39 61.178 61.178v125.517c-0.056 5.987-1.043 11.725-2.822 17.101l45.263-0.396c0.27-0.004 0.59-0.006 0.909-0.006 34.844 0 63.15 27.993 63.655 62.717l0.001 435.744zM586.949 852.882l22.575 33.411 25.284 37.023c1.735 1.719 2.81 4.103 2.81 6.737 0 3.799-2.234 7.076-5.461 8.589-1.634 1.038-3.557 1.64-5.621 1.64-3.46 0-6.525-1.692-8.412-4.295l-38.85-56.468-11.739-17.157c-35.967 13.69-77.559 21.617-121.002 21.617s-85.035-7.927-123.407-22.414l-7.076 16.148-12.19 15.802-27.090 40.635c-1.721 3.494-5.257 5.855-9.345 5.855-1.876 0-3.635-0.497-5.154-1.367-2.554-1.79-4.237-4.771-4.237-8.146 0-1.996 0.589-3.854 1.602-5.411l25.261-36.985 22.575-33.411c-82.078-32.19-140.021-108.81-144.459-199.49l569.771-0.524c-5.422 90.772-63.716 166.667-144.29 197.686zM325.982 733.686c-16.064 0.502-28.896 13.645-28.896 29.785 0 16.458 13.341 29.799 29.799 29.799 16.453 0 29.791-13.334 29.799-29.785-0.252-16.514-13.698-29.803-30.247-29.803-0.16 0-0.32 0.001-0.479 0.004zM570.243 733.686c-16.064 0.502-28.896 13.645-28.896 29.785 0 16.458 13.341 29.799 29.799 29.799 16.453 0 29.791-13.334 29.799-29.785-0.252-16.514-13.698-29.803-30.247-29.803-0.16 0-0.32 0.001-0.479 0.004z" />
<glyph unicode="&#x5e;" glyph-name="visits-in" d="M995.399 448.206l-153.247 156.778c-2.877 2.633-6.725 4.246-10.95 4.246-8.849 0-16.046-7.077-16.239-15.88v-105.949h-751.051c-0.001 0-0.003 0-0.005 0-27.692 0-50.141-22.449-50.141-50.141 0-0.248 0.002-0.496 0.005-0.744v-6.318c0.2-27.54 22.572-49.788 50.139-49.788 0 0 0.001 0 0.001 0h750.698v-102.047c0-0.002 0-0.003 0-0.005 0-8.971 7.272-16.243 16.243-16.243 4.223 0 8.070 1.612 10.959 4.254l153.234 158.179c3.256 2.981 5.291 7.25 5.291 11.995 0 4.574-1.891 8.707-4.934 11.659z" />
<glyph unicode="&#x5f;" glyph-name="apply-left-heatmap" horiz-adv-x="2048" d="M1117.091 938.667h-1117.091v-1024h2048v1024h-930.909zM1954.909 7.758h-837.818v837.818h837.818v-837.818z" />
<glyph unicode="&#x60;" glyph-name="drop-down" d="M202.224 458.048c-13.632 12.352-13.632 32.384 0 44.736 13.632 12.288 35.904 12.288 49.472 0l260.288-234.496 260.096 234.496c13.76 12.288 35.904 12.288 49.536 0 6.848-6.208 10.368-14.208 10.368-22.336s-3.52-16.256-10.368-22.4l-284.864-256.896c-13.76-12.224-35.776-12.224-49.536 0l-284.992 256.896z" />
<glyph unicode="&#x61;" glyph-name="rewind" d="M353.792 109.227l-302.592 288.256c-7.204 6.232-11.734 15.387-11.734 25.6s4.531 19.368 11.692 25.564l302.635 285.22c5.444 5.337 12.908 8.631 21.141 8.631 16.683 0 30.208-13.525 30.208-30.208 0-1.056-0.054-2.1-0.16-3.128l0.011-575.359c0.095-0.899 0.149-1.943 0.149-2.999 0-16.683-13.525-30.208-30.208-30.208-8.233 0-15.697 3.294-21.146 8.636zM972.8-34.133l-445.952 433.152c-6.094 6.188-9.856 14.687-9.856 24.064s3.763 17.876 9.861 24.068l445.948 440.316c5.438 5.307 12.882 8.581 21.090 8.581 16.683 0 30.208-13.525 30.208-30.208 0-0.858-0.036-1.707-0.106-2.547l0.007-874.386c0.019-0.402 0.030-0.873 0.030-1.347 0-16.683-13.525-30.208-30.208-30.208-8.175 0-15.591 3.247-21.030 8.522z" />
<glyph unicode="&#x62;" glyph-name="big-info" horiz-adv-x="349" d="M236.058 130.621l30.156 121.272 66.797 268.808c1.674 6.472 2.635 13.901 2.635 21.555 0 41.608-28.395 76.584-66.863 86.608l-9.377 2.732c-5.142 1.344-11.136 2.271-17.291 2.585l-0.219 1.63-3.891-1.621c-25.543-3.952-48.339-13.333-67.983-26.941-77.284-54.123-183.964-126.107-168.075-161.776 23.995-51.881 140.727 84.631 112.841-27.886l-30.48-120.299-66.797-268.808c-2.181-7.205-3.437-15.485-3.437-24.059 0-39.923 27.226-73.486 64.123-83.137l9.353-2.403c5.153-1.362 11.148-2.29 17.308-2.586l0.201-1.953 3.891 1.621c25.543 3.952 48.339 13.333 67.983 26.941 77.284 54.123 185.909 125.459 170.021 159.83-22.698 52.529-138.782-84.631-110.896 27.886zM224.061 938.667c68.425-0.915 123.541-56.597 123.541-125.152 0-69.125-56.037-125.163-125.163-125.163-69.122 0-125.157 56.031-125.163 125.152 0 0.004 0 0.007 0 0.011 0 69.125 56.037 125.163 125.163 125.163 0.57 0 1.139-0.004 1.707-0.011z" />
<glyph unicode="&#x63;" glyph-name="bug" d="M486.4 921.6c-89.278-0.121-163.001-66.564-174.55-152.696l349.199-0.904c-11.648 87.036-85.371 153.479-174.636 153.6zM236.089 708.267l-69.973 116.622c-6.958 12.215-19.892 20.318-34.719 20.318-21.993 0-39.822-17.829-39.822-39.822 0-7.967 2.339-15.387 6.369-21.611l93.203-155.151h62.009c-65.022-55.22-109.661-132.708-122.093-220.555l-88.396-1.881c-4.358-0.052-8.461-1.097-12.108-2.917-13.819-5.223-23.578-18.502-23.578-34.060s9.759-28.837 23.489-34.050c3.736-1.831 7.838-2.876 12.18-2.928h86.488c6.94-79.415 39.398-150.159 89.019-205.107l-27.011 0.307-93.298-155.876c-3.509-5.22-5.601-11.648-5.601-18.564 0-13.339 7.781-24.861 19.053-30.274 6.046-3.655 13.116-5.77 20.68-5.776 1.772-0.315 3.809-0.495 5.889-0.495 11.517 0 21.745 5.52 28.182 14.058l70.038 117.281h84.196c38.248-20.59 83.078-34.411 130.673-38.592l1.309 699.072zM961.991 369.778c-0.11 16.362-10.996 30.152-25.911 34.636-1.968 0.432-3.933 0.641-5.947 0.641s-3.979-0.209-5.874-0.607l-87.993 0.033c-11.74 89.244-55.435 166.565-119.017 221.487l61.56 0.379 92.729 153.031c3.772 5.978 6.011 13.252 6.011 21.049 0 22.014-17.846 39.86-39.86 39.86-14.217 0-26.696-7.443-33.752-18.646l-70.070-113.943h-219.022v-698.596c49.688 4.097 95.318 17.937 136.16 39.605l82.862-0.921 69.973-113.778c7.153-11.367 19.632-18.811 33.849-18.811 22.014 0 39.86 17.846 39.86 39.86 0 7.797-2.239 15.071-6.108 21.214l-93.201 150.59h-27.307c48.694 54.828 80.565 125.577 86.957 203.542l86.554 1.258c1.71-0.365 3.675-0.575 5.689-0.575s3.979 0.209 5.874 0.607c15.133 4.496 26.119 18.438 26.119 34.946 0 1.104-0.049 2.197-0.145 3.276z" />
<glyph unicode="&#x64;" glyph-name="visits-to-out" d="M1000.96 468.724l-78.263 244.297c-2.203 6.9-8.557 11.81-16.059 11.81-2.251 0-4.4-0.442-6.362-1.245l-239.065-96.142c-5.92-2.692-9.961-8.554-9.961-15.36s4.042-12.668 9.856-15.317l99.58-46.854c-53.76-138.24-96.549-257.829-306.834-257.829h-325.12c-34.942 0-63.269-28.326-63.269-63.269v0c0-34.942 28.326-63.269 63.269-63.269h325.486c333.531 0 356.571 172.617 422.4 329.143l101.303-47.177c2.148-1.068 4.679-1.693 7.355-1.693 9.291 0 16.823 7.532 16.823 16.823 0 2.188-0.418 4.278-1.177 6.195z" />
<glyph unicode="&#x65;" glyph-name="mail" horiz-adv-x="1317" d="M658.286 441.296l650.971 343.771c-14.629 80.457-80.457 138.971-168.229 138.971h-965.486c-87.771 0-153.6-58.514-168.229-138.971l650.971-343.771zM746.057 295.010c-43.886-21.943-65.829-29.257-87.771-29.257s-43.886 7.314-87.771 29.257l-563.2 299.886v-504.686c0-95.086 73.143-168.229 168.229-168.229h972.8c95.086 0 168.229 73.143 168.229 168.229v504.686l-570.514-299.886z" />
<glyph unicode="&#x66;" glyph-name="fast-forword" d="M665.6 733.867l307.2-288.256c7.204-6.232 11.734-15.387 11.734-25.6s-4.531-19.368-11.692-25.564l-307.243-285.22c-5.444-5.337-12.908-8.631-21.141-8.631-16.683 0-30.208 13.525-30.208 30.208 0 1.056 0.054 2.1 0.16 3.128l-0.011 576.383c-0.038 0.564-0.059 1.223-0.059 1.887 0 16.683 13.525 30.208 30.208 30.208 8.189 0 15.617-3.258 21.058-8.55zM55.808 887.467l445.952-436.224c6.094-6.188 9.856-14.687 9.856-24.064s-3.763-17.876-9.861-24.068l-445.948-437.244c-5.438-5.307-12.882-8.581-21.090-8.581-16.683 0-30.208 13.525-30.208 30.208 0 0.858 0.036 1.707 0.106 2.547l-0.007 875.41c-0.001 0.088-0.001 0.191-0.001 0.295 0 16.683 13.525 30.208 30.208 30.208 8.161 0 15.566-3.236 21.002-8.495z" />
<glyph unicode="&#x67;" glyph-name="arrow-big-down" horiz-adv-x="658" d="M635.087 274.619c-16.549 16.549-41.374 16.549-57.923 0l-206.869-206.869v819.2c0 22.756-18.618 41.374-41.374 41.374s-41.374-18.618-41.374-41.374v-819.2l-206.869 206.869c-16.549 16.549-41.374 16.549-57.923 0s-16.549-41.374 0-57.923l277.204-277.204c8.275-8.275 18.618-12.412 28.962-12.412s20.687 4.137 28.962 12.412c0 0 0 0 0 0l277.204 277.204c16.549 14.481 16.549 41.374 0 57.923z" />
<glyph unicode="&#x68;" glyph-name="heat-map" d="M603.022 250.311c-130.844-113.778 11.378-278.756 119.467-187.733 159.289 136.533 51.2 375.467-62.578 534.756 0 0 73.956-233.244-56.889-347.022v0 0zM563.2-56.889c-182.044 147.911-176.356 267.378-91.022 381.156v0c0 0 307.2 329.956-193.422 642.844 227.556-267.378 51.2-358.4-56.889-529.067-170.667-329.956 153.6-500.622 341.333-494.933v0z" />
<glyph unicode="&#x69;" glyph-name="unlock" d="M533.943 321.828c0 29.257-29.257 58.514-58.514 58.514s-58.514-21.943-58.514-58.514c0-21.943 7.314-36.571 21.943-43.886v-109.714c0-21.943 14.629-36.571 36.571-36.571s36.571 14.629 36.571 36.571v109.714c14.629 7.314 21.943 29.257 21.943 43.886zM841.143-73.143h-731.429c-21.943 0-36.571 14.629-36.571 36.571v585.143c0 21.943 14.629 36.571 36.571 36.571h731.429c21.943 0 36.571-14.629 36.571-36.571v-585.143c0-21.943-14.629-36.571-36.571-36.571zM146.286 0h658.286v512h-658.286v-512zM256 512c-21.943 0-36.571 14.629-36.571 36.571v131.657c0 138.971 117.029 248.686 256 248.686s256-109.714 256-248.686c0-21.943-14.629-36.571-36.571-36.571s-36.571 21.943-36.571 36.571c0 95.086-80.457 175.543-182.857 175.543s-182.857-73.143-182.857-175.543v-131.657c0-21.943-14.629-36.571-36.571-36.571z" />
<glyph unicode="&#x6a;" glyph-name="tablet" d="M797.867 401.067c-21.333 0-38.4 17.067-38.4 38.4s17.067 38.4 38.4 38.4 38.4-17.067 38.4-38.4c-4.267-21.333-21.333-38.4-38.4-38.4zM797.867 443.734c-4.267 0-4.267 0-4.267-4.267s8.533-4.267 8.533 0c0 4.267-4.267 4.267-4.267 4.267zM853.333 682.667v-512h-682.667v512h682.667zM853.333 725.334h-682.667c-21.333 0-42.667-17.067-42.667-42.667v-512c0-25.6 21.333-42.667 42.667-42.667h682.667c21.333 0 42.667 17.067 42.667 42.667v512c0 25.6-17.067 42.667-42.667 42.667v0zM682.667 597.334v-341.333h-426.667v341.333h426.667zM682.667 640h-426.667c-21.333 0-42.667-17.067-42.667-42.667v-341.333c0-25.6 21.333-42.667 42.667-42.667h426.667c21.333 0 42.667 17.067 42.667 42.667v341.333c0 25.6-17.067 42.667-42.667 42.667v0z" />
<glyph unicode="&#x6b;" glyph-name="visits-from-out" d="M925.355 324.267l-147.797 155.307c-2.822 2.736-6.676 4.422-10.923 4.422-8.666 0-15.693-7.021-15.701-15.685v-102.401h-204.8c-1.14-0.013-2.485-0.021-3.833-0.021-178.533 0-325.984 133.075-348.574 305.444-3.025 25.892-23.334 44.427-47.975 44.443h-0.002c-0.116 0.001-0.254 0.002-0.391 0.002-26.769 0-48.469-21.7-48.469-48.469 0-2.167 0.142-4.3 0.418-6.391 27.976-225.11 218.191-397.833 448.799-398.090h204.827v-96.939c0.187-8.527 7.143-15.368 15.698-15.368 4.084 0 7.804 1.559 10.597 4.115l148.127 148.811c2.451 2.757 3.948 6.409 3.948 10.411s-1.497 7.654-3.962 10.427z" />
<glyph unicode="&#x6c;" glyph-name="looping-apply-segment" d="M951.467 580.267c-21.333 55.467-51.2 106.667-89.6 153.6l72.533 76.8-366.933 85.333 55.467-179.2v-4.267l55.467-179.2 72.533 81.067c21.333-25.6 38.4-55.467 51.2-89.6 64-170.667-25.6-362.667-196.267-426.667s-362.667 25.6-422.4 196.267c-64 170.667 25.6 362.667 196.267 426.667 0 0 4.267 0 4.267 0l-42.667 153.6c-4.267 0-8.533-4.267-17.067-4.267-251.733-93.867-384-379.733-290.133-631.467 93.867-256 375.467-384 631.467-290.133 247.467 89.6 379.733 375.467 285.867 631.467zM627.2 512c0 0-268.8 0-273.067 0-12.8 0-17.067-12.8-8.533-21.333l102.4-106.667v-106.667c0-4.267 59.733-59.733 59.733-59.733 4.267-4.267 4.267-4.267 8.533-4.267 0 0 4.267 0 4.267 0 4.267 4.267 8.533 12.8 8.533 21.333v149.333l102.4 106.667c12.8 4.267 8.533 21.333-4.267 21.333z" />
<glyph unicode="&#x6d;" glyph-name="minus-clean" d="M0 541.867h1024v-243.2h-1024v243.2z" />
<glyph unicode="&#x6f;" glyph-name="some_selected" d="M914.565 852.682c7.817 0 23.45-7.817 23.45-15.634 0 0 0 0 0-7.817v-805.13c0-7.817-7.817-23.45-15.634-23.45 0 0 0 0-7.817 0h-805.13c-7.817 0-23.45 7.817-23.45 15.634 0 0 0 0 0 7.817v805.13c0 7.817 7.817 23.45 15.634 23.45 0 0 0 0 7.817 0h805.13zM914.565 938.667h-805.13c-62.534 0-109.435-46.901-109.435-101.618 0 0 0 0 0-7.817v-805.13c0-62.534 46.901-109.435 101.618-109.435 0 0 0 0 7.817 0h805.13c62.534 0 109.435 46.901 109.435 101.618 0 0 0 0 0 7.817v805.13c0 62.534-46.901 109.435-109.435 109.435 0 0 0 0 0 0zM234.504 477.476h562.809v-78.168h-562.809v78.168z" />
<glyph unicode="&#x70;" glyph-name="plus" d="M0 541.867h1024v-243.2h-1024v243.2zM384 938.667h256v-1024h-256v1024z" />
<glyph unicode="&#x71;" glyph-name="move-icon" horiz-adv-x="1117" d="M0 698.182c0 27.927 18.618 46.545 46.545 46.545h1024c27.927 0 46.545-18.618 46.545-46.545s-18.618-46.545-46.545-46.545h-1024c-27.927 0-46.545 18.618-46.545 46.545zM0 418.909c0 27.927 18.618 46.545 46.545 46.545h1024c27.927 0 46.545-18.618 46.545-46.545s-18.618-46.545-46.545-46.545h-1024c-27.927 0-46.545 18.618-46.545 46.545zM0 139.636c0 27.927 18.618 46.545 46.545 46.545h1024c27.927 0 46.545-18.618 46.545-46.545s-18.618-46.545-46.545-46.545h-1024c-27.927 0-46.545 18.618-46.545 46.545z" />
<glyph unicode="&#x72;" glyph-name="apps_replay" horiz-adv-x="892" d="M449.239 922.151c-230.904-0.795-417.781-188.162-417.781-419.177 0-204.028 145.765-374.010 338.836-411.488l-21.803-153.366c-0.335-1.431-0.527-3.075-0.527-4.764 0-12.041 9.761-21.801 21.801-21.801 4.366 0 8.433 1.284 11.843 3.494l248.318 170.065c5.921 4.509 9.703 11.562 9.703 19.499 0 5.042-1.527 9.728-4.143 13.621l-182.613 239.396c-4.026 5.172-10.252 8.468-17.249 8.468-11.417 0-20.784-8.776-21.724-19.95l-25.44-158.965c-148.898 29.397-259.633 158.928-259.633 314.323 0 176.777 143.306 320.083 320.083 320.083s320.083-143.306 320.083-320.083c0-0.065 0-0.131 0-0.196 0-27.355 22.184-49.538 49.548-49.538s49.548 22.184 49.548 49.548c0.001 0.393 0.002 0.857 0.002 1.322 0 231.457-187.446 419.134-418.816 419.509z" />
<glyph unicode="&#x73;" glyph-name="arrow-big-up" horiz-adv-x="658" d="M20.687 578.715c16.549-16.549 41.374-16.549 57.923 0l206.869 206.869v-819.2c0-22.756 18.618-41.374 41.374-41.374s41.374 18.618 41.374 41.374v819.2l206.869-206.869c16.549-16.549 41.374-16.549 57.923 0s16.549 41.374 0 57.923l-275.135 279.273c-8.275 8.275-18.618 12.412-28.962 12.412s-20.687-4.137-28.962-12.412c0 0 0 0 0 0l-279.273-279.273c-14.481-14.481-14.481-41.374 0-57.923z" />
<glyph unicode="&#x74;" glyph-name="filter-fill" d="M876.089 853.333c0 0-722.489 0-722.489 0-34.133 0-51.2-39.822-28.444-62.578l273.067-278.756v-284.444c0-11.378 159.289-159.289 159.289-159.289 5.689-5.689 17.067-11.378 22.756-11.378s11.378 0 11.378 5.689c17.067 5.689 28.444 39.822 28.444 51.2v398.222c0 0 273.067 278.756 273.067 278.756 28.444 22.756 11.378 62.578-17.067 62.578z" />
<glyph unicode="&#x75;" glyph-name="undo" horiz-adv-x="771" d="M0 635.069l303.598 303.598v-205.829h-5.66c0.081 0 0.177 0 0.273 0 261.171 0 472.892-211.721 472.892-472.892 0-120.926-45.389-231.25-120.059-314.866-15.159-14.732-36.465-24.105-59.96-24.105-47.744 0-86.448 38.704-86.448 86.448 0 19.773 6.638 37.995 17.808 52.56 47.311 52.677 76.379 122.912 76.52 199.934 0 164.177-135.847 325.239-301.025 325.239h5.66v-253.684z" />
<glyph unicode="&#x76;" glyph-name="v-bold" horiz-adv-x="1476" d="M1430.588 908.549c-45.176 45.176-135.529 45.176-180.706 0l-677.647-677.647-361.412 361.412c-45.176 45.176-120.471 45.176-180.706 0-45.176-45.176-45.176-135.529 0-180.706l451.765-451.765c30.118-30.118 60.235-30.118 90.353-30.118s60.235 15.059 90.353 30.118l768 768c60.235 45.176 60.235 120.471 0 180.706z" />
<glyph unicode="&#x77;" glyph-name="link" d="M936.229 863.086v0c-51.2 58.514-124.343 87.771-197.486 87.771-80.457 0-153.6-29.257-204.8-87.771 0 0-182.857-182.857-190.171-190.171-58.514-51.2-87.771-124.343-87.771-204.8s29.257-146.286 87.771-204.8l21.943-21.943c7.314-7.314 14.629-7.314 21.943-7.314s14.629 0 21.943 7.314l43.886 51.2c14.629 14.629 14.629 29.257 0 43.886l-21.943 21.943c-58.514 58.514-65.829 160.914 0 226.743 0 0 197.486 197.486 197.486 197.486 29.257 29.257 73.143 43.886 109.714 43.886 43.886 0 80.457-14.629 109.714-43.886 0 0 0 0 0 0 65.829-65.829 65.829-160.914 0-226.743l-7.314-7.314c14.629-43.886 21.943-87.771 21.943-131.657 0-7.314 0-14.629 0-21.943l80.457 80.457c109.714 95.086 109.714 277.943-7.314 387.657zM87.771 14.628v0c51.2-58.514 124.343-87.771 197.486-87.771 80.457 0 146.286 29.257 204.8 87.771 0 0 182.857 182.857 190.171 190.171 51.2 51.2 87.771 124.343 87.771 204.8s-29.257 146.286-87.771 204.8l-21.943 21.943c-7.314 7.314-14.629 7.314-21.943 7.314s-14.629 0-21.943-7.314l-43.886-51.2c-14.629-14.629-14.629-29.257 0-43.886l21.943-21.943c58.514-58.514 65.829-160.914 0-226.743 0 0-197.486-197.486-197.486-197.486-29.257-29.257-73.143-43.886-109.714-43.886-43.886 0-80.457 14.629-109.714 43.886v0c-65.829 65.829-65.829 160.914 0 226.743l7.314 7.314c-14.629 51.2-21.943 95.086-21.943 138.971 0 7.314 0 14.629 0 21.943l-73.143-73.143c-117.029-109.714-117.029-292.571 0-402.286z" />
<glyph unicode="&#x78;" glyph-name="lock" d="M694.857 512h-438.857c-21.943 0-36.571 14.629-36.571 36.571v131.657c0 73.143 29.257 138.971 87.771 182.857 58.514 51.2 138.971 73.143 212.114 58.514 124.343-14.629 212.114-124.343 212.114-248.686v-124.343c0-21.943-14.629-36.571-36.571-36.571zM292.571 585.143h365.714v87.771c0 87.771-65.829 168.229-146.286 182.857-58.514 7.314-117.029-7.314-160.914-43.886-36.571-29.257-58.514-80.457-58.514-131.657v-95.086zM841.143 585.143h-731.429c-21.943 0-36.571-14.629-36.571-36.571v-585.143c0-21.943 14.629-36.571 36.571-36.571h731.429c21.943 0 36.571 14.629 36.571 36.571v585.143c0 21.943-14.629 36.571-36.571 36.571zM512 277.943v-109.714c0-21.943-14.629-36.571-36.571-36.571s-36.571 14.629-36.571 36.571v109.714c-14.629 7.314-21.943 29.257-21.943 43.886 0 29.257 29.257 58.514 58.514 58.514s58.514-29.257 58.514-58.514c0-14.629-7.314-36.571-21.943-43.886z" />
<glyph unicode="&#x79;" glyph-name="kpi-text" horiz-adv-x="1963" d="M256-0v247.467l162.133 136.533 213.333-384h221.867l-324.267 503.467 307.2 349.867h-230.4l-349.867-401.067v401.067h-153.6v-853.333c0 0 153.6 0 153.6 0zM1109.333 34.134v315.733h110.933c59.733 0 110.933-8.533 179.2 0 25.6 8.533 59.733 25.6 85.333 34.133 25.6 25.6 51.2 51.2 59.733 76.8 8.533 34.133 25.6 85.333 25.6 128 0 59.733-8.533 110.933-51.2 162.133-25.6 34.133-59.733 59.733-110.933 76.8-59.733 25.6-136.533 25.6-204.8 25.6h-264.533v-819.2h170.667zM1177.6 725.334h110.933c25.6 0 102.4-34.133 102.4-119.467 0-51.2-42.667-110.933-76.8-110.933-42.667 0-85.333 0-128 0h-85.333v230.4h76.8zM1877.333-0v819.2h-162.133v-819.2h162.133z" />
<glyph unicode="&#x7a;" glyph-name="wrench" d="M128.103 102.317c-9.421-4.931-21.398-1.673-26.715 7.216l-98.686 164.997c-5.333 8.917-2.099 20.608 6.889 25.916l87.721 51.809c9.138 5.397 16.54 18.068 16.534 28.506l-0.075 134.534c-0.006 10.347-7.568 23.198-16.556 28.507l-87.723 51.81c-9.138 5.397-12.201 17.025-6.879 25.911l98.791 164.936c5.339 8.913 17.456 12.062 26.719 7.213l90.411-47.324c9.418-4.929 24.508-4.781 33.89 0.433l120.91 67.204c9.299 5.169 17.069 17.899 17.344 28.056l2.687 99.131c0.28 10.326 9.195 18.702 19.84 18.709l197.585 0.118c10.678 0.006 19.565-8.532 19.841-18.693l2.689-99.171c0.28-10.33 7.962-22.853 17.343-28.074l120.896-67.28c9.298-5.175 24.628-5.291 33.894-0.44l90.444 47.341c9.421 4.931 21.398 1.673 26.715-7.216l98.686-164.997c5.333-8.917 2.099-20.608-6.889-25.916l-87.721-51.809c-9.138-5.397-16.54-18.068-16.534-28.506l0.075-134.534c0.006-10.347 7.568-23.198 16.556-28.507l87.723-51.81c9.138-5.397 12.201-17.025 6.879-25.911l-98.791-164.936c-5.339-8.913-17.456-12.062-26.719-7.213l-90.411 47.324c-9.418 4.929-24.508 4.781-33.89-0.433l-120.91-67.204c-9.299-5.169-17.069-17.899-17.344-28.056l-2.687-99.131c-0.28-10.326-9.195-18.702-19.84-18.709l-197.585-0.118c-10.678-0.006-19.565 8.532-19.841 18.693l-2.689 99.171c-0.28 10.33-7.962 22.853-17.343 28.074l-120.896 67.28c-9.298 5.175-24.628 5.291-33.894 0.44l-90.444-47.341zM395.426 253.375c111.513-62.058 254.104-25.23 318.486 82.258s26.175 244.933-85.338 306.992c-111.513 62.058-254.104 25.23-318.486-82.258s-26.175-244.933 85.338-306.992z" />
<glyph unicode="&#x7b;" glyph-name="path-analysis" d="M1024 477.867l-108.089 85.333c5.689 11.378 5.689 22.756 5.689 34.133 0 39.822-34.133 79.644-79.644 79.644s-79.644-34.133-79.644-79.644c0-11.378 5.689-22.756 5.689-28.444l-199.111-170.667c0 5.689-17.067 5.689-28.444 5.689-22.756 0-39.822-5.689-51.2-22.756l-147.911 79.644c5.689 5.689 5.689 11.378 5.689 17.067 0 39.822-34.133 79.644-79.644 79.644s-73.956-34.133-73.956-73.956c0-17.067 5.689-28.444 11.378-39.822l-204.8-182.044 28.444-28.444 210.489 182.044c5.689-5.689 17.067-11.378 34.133-11.378 22.756 0 39.822 11.378 56.889 22.756l136.533-79.644c-5.689-5.689-5.689-11.378-5.689-17.067 0-39.822 34.133-79.644 79.644-79.644 39.822 0 79.644 34.133 79.644 79.644 0 11.378-5.689 22.756-5.689 34.133l193.422 170.667c11.378-5.689 28.444-17.067 45.511-17.067s28.444 5.689 39.822 11.378l108.089-85.333 22.756 34.133z" />
<glyph unicode="&#x7c;" glyph-name="applyBoth-heatmap" horiz-adv-x="2234" d="M1210.182 938.667h1024v-1024h-1024v1024zM0 938.667h1024v-1024h-1024v1024z" />
<glyph unicode="&#x7d;" glyph-name="help-center" d="M870.4 812.8c-204.8 198.4-524.8 192-723.2-6.4-198.4-204.8-192-524.8 6.4-723.2 204.8-198.4 524.8-192 723.2 6.4 198.4 204.8 198.4 524.8-6.4 723.2zM832 780.8c57.6-51.2 96-121.6 115.2-192l-134.4-32c-12.8 44.8-38.4 89.6-76.8 121.6-32 32-76.8 57.6-121.6 70.4l32 134.4c70.4-19.2 134.4-51.2 185.6-102.4zM211.2 550.4l-134.4 38.4c19.2 64 57.6 128 108.8 179.2 51.2 57.6 121.6 96 192 115.2l32-134.4c-44.8-12.8-89.6-38.4-128-70.4-32-38.4-57.6-83.2-70.4-128zM192 115.2c-57.6 51.2-96 121.6-115.2 192l134.4 32c12.8-44.8 38.4-89.6 76.8-121.6 38.4-38.4 76.8-57.6 121.6-76.8l-32-134.4c-70.4 25.6-134.4 57.6-185.6 108.8zM326.4 256c-108.8 108.8-108.8 275.2 0 384s268.8 102.4 377.6 0 102.4-275.2 0-377.6-275.2-108.8-377.6-6.4zM614.4 140.8c44.8 12.8 89.6 38.4 121.6 76.8 38.4 38.4 57.6 76.8 76.8 121.6l134.4-32c-19.2-64-57.6-128-108.8-179.2-51.2-57.6-121.6-96-192-115.2l-32 128z" />
<glyph unicode="&#x7e;" glyph-name="bg" d="M915.911 938.667h-227.556l-688.356-688.356v-227.556l915.911 915.911zM455.111 938.667h-233.244l-221.867-221.867v-233.244l455.111 455.111zM574.578-85.333h227.556l221.867 221.867v227.556l-449.422-449.422zM119.467-85.333h227.556l676.978 676.978v227.556l-904.533-904.533z" />
<glyph unicode="&#xa7;" glyph-name="looping" d="M951.467 580.267c-21.333 55.467-51.2 106.667-89.6 153.6l72.533 76.8-366.933 85.333 55.467-179.2v-4.267l55.467-179.2 72.533 81.067c21.333-25.6 38.4-55.467 51.2-89.6 64-170.667-25.6-362.667-196.267-426.667s-362.667 25.6-422.4 196.267c-64 170.667 25.6 362.667 196.267 426.667 0 0 4.267 0 4.267 0l-42.667 153.6c-4.267 0-8.533-4.267-17.067-4.267-251.733-93.867-384-379.733-290.133-631.467 93.867-256 375.467-384 631.467-290.133 247.467 89.6 379.733 375.467 285.867 631.467z" />
</font>
</defs>
</svg>
