<?xml version="1.0" encoding="UTF-8"?>
<svg width="30px" height="30px" viewBox="0 0 30 30" version="1.1" xmlns="http://www.w3.org/2000/svg" xmlns:xlink="http://www.w3.org/1999/xlink">
    <!-- Generator: Sketch 49.2 (51160) - http://www.bohemiancoding.com/sketch -->
    <title>icon/em/engagment_time@1x</title>
    <desc>Created with Sketch.</desc>
    <defs>
        <linearGradient x1="51.2069444%" y1="100.2%" x2="51.2069444%" y2="2.02692522%" id="linearGradient-1">
            <stop stop-color="#FFFFFF" offset="0%"></stop>
            <stop stop-color="#D5D7DA" offset="100%"></stop>
        </linearGradient>
    </defs>
    <g id="icon/em/engagment_time" stroke="none" stroke-width="1" fill="none" fill-rule="evenodd">
        <g id="icon-time" transform="translate(2.000000, 0.000000)">
            <circle id="Oval-2" fill="url(#linearGradient-1)" opacity="0.637058424" cx="12.5" cy="15.5" r="9.5"></circle>
            <path d="M13.7002,1 L11.3002,1 C11.0232,1 10.8002,0.776 10.8002,0.5 C10.8002,0.224 11.0232,-3.55271368e-15 11.3002,-3.55271368e-15 L13.7002,-3.55271368e-15 C13.9762,-3.55271368e-15 14.2002,0.224 14.2002,0.5 C14.2002,0.776 13.9762,1 13.7002,1" id="Fill-1" fill="#959FB2"></path>
            <path d="M12.5,4.5996 C12.224,4.5996 12,4.3756 12,4.0996 L12,0.4996 C12,0.2236 12.224,-0.0004 12.5,-0.0004 C12.776,-0.0004 13,0.2236 13,0.4996 L13,4.0996 C13,4.3756 12.776,4.5996 12.5,4.5996" id="Fill-3" fill="#959FB2"></path>
            <path d="M23.8999,6.3999 C23.7719,6.3999 23.6439,6.3509 23.5459,6.2539 L21.7469,4.4529 C21.5509,4.2579 21.5509,3.9419 21.7469,3.7459 C21.9419,3.5509 22.2579,3.5509 22.4539,3.7459 L24.2539,5.5459 C24.4489,5.7419 24.4489,6.0579 24.2539,6.2539 C24.1559,6.3509 24.0279,6.3999 23.8999,6.3999" id="Fill-5" fill="#959FB2"></path>
            <path d="M20.6797,7.8203 C20.5517,7.8203 20.4237,7.7713 20.3257,7.6743 C20.1307,7.4783 20.1307,7.1623 20.3257,6.9663 L22.6467,4.6463 C22.8417,4.4513 23.1587,4.4513 23.3537,4.6463 C23.5487,4.8413 23.5487,5.1583 23.3537,5.3533 L21.0337,7.6743 C20.9357,7.7713 20.8077,7.8203 20.6797,7.8203" id="Fill-7" fill="#959FB2"></path>
            <path d="M6.5,16.5996 L4.1,16.5996 C3.824,16.5996 3.6,16.3756 3.6,16.0996 C3.6,15.8236 3.824,15.5996 4.1,15.5996 L6.5,15.5996 C6.776,15.5996 7,15.8236 7,16.0996 C7,16.3756 6.776,16.5996 6.5,16.5996" id="Fill-9" fill="#959FB2"></path>
            <path d="M8.2998,12.3999 C8.1718,12.3999 8.0438,12.3509 7.9458,12.2539 L6.1468,10.4529 C5.9508,10.2579 5.9508,9.9419 6.1468,9.7459 C6.3418,9.5509 6.6578,9.5509 6.8538,9.7459 L8.6538,11.5459 C8.8488,11.7419 8.8488,12.0579 8.6538,12.2539 C8.5558,12.3509 8.4278,12.3999 8.2998,12.3999" id="Fill-11" fill="#959FB2"></path>
            <path d="M6.5,22.5996 C6.372,22.5996 6.244,22.5506 6.146,22.4536 C5.951,22.2576 5.951,21.9416 6.146,21.7456 L7.946,19.9466 C8.142,19.7506 8.458,19.7506 8.653,19.9466 C8.849,20.1416 8.849,20.4576 8.653,20.6536 L6.854,22.4536 C6.756,22.5506 6.628,22.5996 6.5,22.5996" id="Fill-13" fill="#959FB2"></path>
            <path d="M20.8999,16.5996 L18.4999,16.5996 C18.2239,16.5996 17.9999,16.3756 17.9999,16.0996 C17.9999,15.8236 18.2239,15.5996 18.4999,15.5996 L20.8999,15.5996 C21.1759,15.5996 21.3999,15.8236 21.3999,16.0996 C21.3999,16.3756 21.1759,16.5996 20.8999,16.5996" id="Fill-15" fill="#959FB2"></path>
            <path d="M12.5,25 C12.224,25 12,24.776 12,24.5 L12,22.1 C12,21.823 12.224,21.6 12.5,21.6 C12.776,21.6 13,21.823 13,22.1 L13,24.5 C13,24.776 12.776,25 12.5,25" id="Fill-17" fill="#959FB2"></path>
            <path d="M12.5,10.5996 C12.224,10.5996 12,10.3756 12,10.0996 L12,7.6996 C12,7.4236 12.224,7.1996 12.5,7.1996 C12.776,7.1996 13,7.4236 13,7.6996 L13,10.0996 C13,10.3756 12.776,10.5996 12.5,10.5996" id="Fill-19" fill="#959FB2"></path>
            <path d="M18.5,22.5996 C18.372,22.5996 18.244,22.5506 18.146,22.4536 L16.347,20.6536 C16.151,20.4576 16.151,20.1416 16.347,19.9466 C16.542,19.7506 16.858,19.7506 17.054,19.9466 L18.854,21.7456 C19.049,21.9416 19.049,22.2576 18.854,22.4536 C18.756,22.5506 18.628,22.5996 18.5,22.5996" id="Fill-21" fill="#959FB2"></path>
            <path d="M16.7002,12.3999 C16.5722,12.3999 16.4442,12.3509 16.3462,12.2539 C16.1512,12.0579 16.1512,11.7419 16.3462,11.5459 L18.1462,9.7459 C18.3422,9.5509 18.6582,9.5509 18.8532,9.7459 C19.0492,9.9419 19.0492,10.2579 18.8532,10.4529 L17.0542,12.2539 C16.9562,12.3509 16.8282,12.3999 16.7002,12.3999" id="Fill-23" fill="#959FB2"></path>
            <path d="M12.5,4.5996 C6.159,4.5996 1,9.7586 1,16.0996 C1,22.4406 6.159,27.5996 12.5,27.5996 C18.841,27.5996 24,22.4406 24,16.0996 C24,9.7586 18.841,4.5996 12.5,4.5996 M12.5,28.5996 C5.607,28.5996 0,22.9926 0,16.0996 C0,9.2066 5.607,3.5996 12.5,3.5996 C19.393,3.5996 25,9.2066 25,16.0996 C25,22.9926 19.393,28.5996 12.5,28.5996" id="Fill-25" fill="#959FB2"></path>
        </g>
    </g>
</svg>