<?xml version="1.0" encoding="UTF-8"?>
<svg width="30px" height="30px" viewBox="0 0 30 30" version="1.1" xmlns="http://www.w3.org/2000/svg" xmlns:xlink="http://www.w3.org/1999/xlink">
    <!-- Generator: Sketch 49.2 (51160) - http://www.bohemiancoding.com/sketch -->
    <title>icon/em/js_error@1x</title>
    <desc>Created with Sketch.</desc>
    <defs>
        <linearGradient x1="51.2069444%" y1="0%" x2="51.2069444%" y2="100.2%" id="linearGradient-1">
            <stop stop-color="#FFFFFF" offset="0%"></stop>
            <stop stop-color="#CACDD1" offset="100%"></stop>
        </linearGradient>
        <linearGradient x1="50.1819444%" y1="0%" x2="50.1819444%" y2="100.2%" id="linearGradient-2">
            <stop stop-color="#FFFFFF" offset="0%"></stop>
            <stop stop-color="#CACDD1" offset="100%"></stop>
        </linearGradient>
    </defs>
    <g id="icon/em/js_error" stroke="none" stroke-width="1" fill="none" fill-rule="evenodd">
        <g id="icon-bug" transform="translate(0.000000, 1.000000)" fill-rule="nonzero">
            <g id="Group" transform="translate(5.000000, 6.000000)">
                <path d="M5.2,1.1 C6.3,0.7 7.5,0.4 8.8,0.2 C7.5,0.3 6.3,0.6 5.2,1.1 Z" id="Shape" fill="#000000"></path>
                <path d="M11,7 L17.2,7 C17.8,8.2 18.1,9.5 18.1,10.9 C18.1,15.2 15,18.7 10.9,19.4 L10.9,7 L11,7 Z" id="Shape" fill="url(#linearGradient-1)" opacity="0.782552083"></path>
                <path d="M8,19.4 C3.9,18.7 0.8,15.1 0.8,10.9 C0.8,9.6 1.1,8.2 1.7,7 L8,7 L8,19.4 Z" id="Shape" fill="url(#linearGradient-2)" opacity="0.782552083"></path>
            </g>
            <path d="M28.2,16.1 L25.2,16.1 C25.2,16.1 25.1,16.1 25.1,16.1 C25,15.1 24.8,14.1 24.4,13.1 L26.8,12.1 C27.1,12 27.2,11.7 27.1,11.4 C27,11.1 26.7,11 26.4,11.1 L24,12.1 C22.3,8.6 18.6,6.1 14.4,6.1 C10.1,6.1 6.5,8.6 4.8,12.2 C4.8,12.2 4.8,12.2 4.7,12.1 L2.1,11 C1.8,10.9 1.6,11 1.4,11.3 C1.3,11.6 1.4,11.8 1.7,12 L4.3,13.1 C4.3,13.1 4.4,13.1 4.4,13.1 C4.1,14 3.9,14.9 3.8,15.9 L1,15.9 C0.7,15.9 0.5,16.1 0.5,16.4 C0.5,16.7 0.7,16.9 1,16.9 L3.8,16.9 C3.8,18.4 4.1,19.8 4.7,21 L2.8,21.9 C2.6,22 2.4,22.3 2.6,22.6 C2.7,22.8 2.9,22.9 3,22.9 C3.1,22.9 3.1,22.9 3.2,22.8 L5.1,21.9 C6.9,25.2 10.4,27.4 14.4,27.4 C18.5,27.4 22,25.1 23.8,21.8 L26.1,22.9 C26.2,22.9 26.2,23 26.3,23 C26.5,23 26.7,22.9 26.7,22.7 C26.8,22.5 26.7,22.2 26.5,22 L24.3,21 C24.8,19.8 25.1,18.4 25.1,17 C25.1,17 25.2,17 25.2,17 L28.2,17 C28.5,17 28.7,16.8 28.7,16.5 C28.7,16.2 28.5,16.1 28.2,16.1 Z M14.5,7.2 C17.6,7.2 20.4,8.7 22.2,11 L6.8,11 C8.6,8.7 11.4,7.2 14.5,7.2 Z M4.8,16.9 C4.8,15.1 5.3,13.4 6.1,12 L14,12 L14,26.5 C14,26.5 14,26.5 14,26.5 C8.9,26.3 4.8,22.1 4.8,16.9 Z M15,26.5 C15,26.5 15,26.5 15,26.5 L15,12 L22.8,12 C23.6,13.4 24.1,15.1 24.1,16.9 C24.2,22.1 20.1,26.3 15,26.5 Z" id="Shape" fill="#959FB2"></path>
            <path d="M11.8,5 C11.7,5 11.6,5 11.5,4.9 C10.5,4 9.7,2.9 9.3,1.6 C9.2,1.3 9.4,1 9.6,1 C9.9,0.9 10.1,1.1 10.2,1.3 C10.5,2.4 11.1,3.4 12,4.1 C12.2,4.3 12.2,4.6 12.1,4.8 C12,5 11.9,5 11.8,5 Z" id="Shape" fill="#959FB2"></path>
            <path d="M17.7,5 C17.6,5 17.4,4.9 17.3,4.8 C17.1,4.6 17.2,4.3 17.4,4.1 C18.3,3.4 18.9,2.4 19.2,1.3 C19.3,1 19.6,0.9 19.9,1 C20.2,1.1 20.3,1.4 20.2,1.6 C19.8,2.9 19.1,4.1 18,4.9 C18,5 17.8,5 17.7,5 Z" id="Shape" fill="#959FB2"></path>
            <path d="M18.5,7 C18.5,4.8 16.7,3.1 14.5,3.1 C12.3,3.1 10.5,4.9 10.5,7 C11.7,6.5 13.1,6.2 14.5,6.2 C15.9,6.2 17.3,6.5 18.5,7 Z" id="Shape" fill="#959FB2"></path>
        </g>
    </g>
</svg>