<?xml version="1.0" encoding="UTF-8"?>
<svg width="30px" height="30px" viewBox="0 0 30 30" version="1.1" xmlns="http://www.w3.org/2000/svg" xmlns:xlink="http://www.w3.org/1999/xlink">
    <!-- Generator: Sketch 49.2 (51160) - http://www.bohemiancoding.com/sketch -->
    <title>icon/em/scroll_reach@1x</title>
    <desc>Created with Sketch.</desc>
    <defs>
        <polygon id="path-1" points="0 0.818 2.1816 0.818 2.1816 3 0 3"></polygon>
        <linearGradient x1="51.2069444%" y1="100.2%" x2="51.2069444%" y2="2.02692522%" id="linearGradient-3">
            <stop stop-color="#FFFFFF" offset="0%"></stop>
            <stop stop-color="#D5D7DA" offset="100%"></stop>
        </linearGradient>
        <polygon id="path-4" points="0 28.1816 27 28.1816 27 -0.000400000001 0 -0.000400000001"></polygon>
    </defs>
    <g id="icon/em/scroll_reach" stroke="none" stroke-width="1" fill="none" fill-rule="evenodd">
        <g id="icon-scroll-reach" transform="translate(2.000000, 0.000000)">
            <g id="Group-3" transform="translate(0.000000, 25.181600)">
                <mask id="mask-2" fill="white">
                    <use xlink:href="#path-1"></use>
                </mask>
                <g id="Clip-2"></g>
                <path d="M1.6816,3 L0.4996,3 C0.2236,3 -0.0004,2.776 -0.0004,2.5 L-0.0004,1.318 C-0.0004,1.042 0.2236,0.818 0.4996,0.818 C0.7766,0.818 0.9996,1.042 0.9996,1.318 L0.9996,2 L1.6816,2 C1.9576,2 2.1816,2.224 2.1816,2.5 C2.1816,2.776 1.9576,3 1.6816,3" id="Fill-1" fill="#959FB2" mask="url(#mask-2)"></path>
            </g>
            <rect id="Rectangle-2" fill="url(#linearGradient-3)" opacity="0.637058424" x="2" y="2" width="9" height="9"></rect>
            <path d="M12.3184,28.1816 L11.1364,28.1816 C10.8604,28.1816 10.6364,27.9576 10.6364,27.6816 C10.6364,27.4056 10.8604,27.1816 11.1364,27.1816 L11.8184,27.1816 L11.8184,26.4996 C11.8184,26.2236 12.0424,25.9996 12.3184,25.9996 C12.5944,25.9996 12.8184,26.2236 12.8184,26.4996 L12.8184,27.6816 C12.8184,27.9576 12.5944,28.1816 12.3184,28.1816" id="Fill-4" fill="#959FB2"></path>
            <path d="M0.5,24.6362 C0.224,24.6362 0,24.4122 0,24.1362 L0,22.9542 C0,22.6782 0.224,22.4542 0.5,22.4542 C0.776,22.4542 1,22.6782 1,22.9542 L1,24.1362 C1,24.4122 0.776,24.6362 0.5,24.6362" id="Fill-6" fill="#959FB2"></path>
            <path d="M5.2271,28.1816 L4.0451,28.1816 C3.7691,28.1816 3.5451,27.9576 3.5451,27.6816 C3.5451,27.4056 3.7691,27.1816 4.0451,27.1816 L5.2271,27.1816 C5.5031,27.1816 5.7271,27.4056 5.7271,27.6816 C5.7271,27.9576 5.5031,28.1816 5.2271,28.1816" id="Fill-8" fill="#959FB2"></path>
            <path d="M5.2271,16.3637 L4.0451,16.3637 C3.7691,16.3637 3.5451,16.1397 3.5451,15.8637 C3.5451,15.5877 3.7691,15.3637 4.0451,15.3637 L5.2271,15.3637 C5.5031,15.3637 5.7271,15.5877 5.7271,15.8637 C5.7271,16.1397 5.5031,16.3637 5.2271,16.3637" id="Fill-10" fill="#959FB2"></path>
            <path d="M8.7729,28.1816 L7.5909,28.1816 C7.3149,28.1816 7.0909,27.9576 7.0909,27.6816 C7.0909,27.4056 7.3149,27.1816 7.5909,27.1816 L8.7729,27.1816 C9.0489,27.1816 9.2729,27.4056 9.2729,27.6816 C9.2729,27.9576 9.0489,28.1816 8.7729,28.1816" id="Fill-12" fill="#959FB2"></path>
            <path d="M8.7729,16.3637 L7.5909,16.3637 C7.3149,16.3637 7.0909,16.1397 7.0909,15.8637 C7.0909,15.5877 7.3149,15.3637 7.5909,15.3637 L8.7729,15.3637 C9.0489,15.3637 9.2729,15.5877 9.2729,15.8637 C9.2729,16.1397 9.0489,16.3637 8.7729,16.3637" id="Fill-14" fill="#959FB2"></path>
            <path d="M12.3184,17.5454 C12.0424,17.5454 11.8184,17.3214 11.8184,17.0454 L11.8184,16.3634 L11.1364,16.3634 C10.8604,16.3634 10.6364,16.1404 10.6364,15.8634 C10.6364,15.5874 10.8604,15.3634 11.1364,15.3634 L12.3184,15.3634 C12.5944,15.3634 12.8184,15.5874 12.8184,15.8634 L12.8184,17.0454 C12.8184,17.3214 12.5944,17.5454 12.3184,17.5454" id="Fill-16" fill="#959FB2"></path>
            <path d="M12.3184,21.0908 C12.0424,21.0908 11.8184,20.8668 11.8184,20.5908 L11.8184,19.4088 C11.8184,19.1328 12.0424,18.9088 12.3184,18.9088 C12.5944,18.9088 12.8184,19.1328 12.8184,19.4088 L12.8184,20.5908 C12.8184,20.8668 12.5944,21.0908 12.3184,21.0908" id="Fill-18" fill="#959FB2"></path>
            <path d="M0.5,17.5454 C0.224,17.5454 0,17.3214 0,17.0454 L0,15.8634 C0,15.5874 0.224,15.3634 0.5,15.3634 L1.682,15.3634 C1.958,15.3634 2.182,15.5874 2.182,15.8634 C2.182,16.1404 1.958,16.3634 1.682,16.3634 L1,16.3634 L1,17.0454 C1,17.3214 0.776,17.5454 0.5,17.5454" id="Fill-20" fill="#959FB2"></path>
            <path d="M0.5,21.0908 C0.224,21.0908 0,20.8668 0,20.5908 L0,19.4088 C0,19.1328 0.224,18.9088 0.5,18.9088 C0.776,18.9088 1,19.1328 1,19.4088 L1,20.5908 C1,20.8668 0.776,21.0908 0.5,21.0908" id="Fill-22" fill="#959FB2"></path>
            <path d="M12.3184,24.6362 C12.0424,24.6362 11.8184,24.4122 11.8184,24.1362 L11.8184,22.9542 C11.8184,22.6782 12.0424,22.4542 12.3184,22.4542 C12.5944,22.4542 12.8184,22.6782 12.8184,22.9542 L12.8184,24.1362 C12.8184,24.4122 12.5944,24.6362 12.3184,24.6362" id="Fill-24" fill="#959FB2"></path>
            <mask id="mask-5" fill="white">
                <use xlink:href="#path-4"></use>
            </mask>
            <g id="Clip-27"></g>
            <path d="M1,11.8176 L11.818,11.8176 L11.818,0.9996 L1,0.9996 L1,11.8176 Z M12.318,12.8176 L0.5,12.8176 C0.224,12.8176 0,12.5946 0,12.3176 L0,0.4996 C0,0.2236 0.224,-0.000400000001 0.5,-0.000400000001 L12.318,-0.000400000001 C12.595,-0.000400000001 12.818,0.2236 12.818,0.4996 L12.818,12.3176 C12.818,12.5946 12.595,12.8176 12.318,12.8176 Z" id="Fill-26" fill="#959FB2" mask="url(#mask-5)"></path>
            <path d="M21.7729,22.8437 C21.6449,22.8437 21.5169,22.7947 21.4189,22.6977 L16.6919,17.9697 C16.4969,17.7747 16.4969,17.4587 16.6919,17.2627 C16.8869,17.0677 17.2039,17.0677 17.3989,17.2627 L21.7729,21.6367 L26.1469,17.2627 C26.3419,17.0677 26.6579,17.0677 26.8539,17.2627 C27.0489,17.4587 27.0489,17.7747 26.8539,17.9697 L22.1269,22.6977 C22.0289,22.7947 21.9009,22.8437 21.7729,22.8437" id="Fill-28" fill="#959FB2" mask="url(#mask-5)"></path>
            <path d="M21.7729,22.8437 C21.4969,22.8437 21.2729,22.6197 21.2729,22.3437 L21.2729,4.0457 C21.2729,3.7687 21.4969,3.5457 21.7729,3.5457 C22.0489,3.5457 22.2729,3.7687 22.2729,4.0457 L22.2729,22.3437 C22.2729,22.6197 22.0489,22.8437 21.7729,22.8437" id="Fill-29" fill="#959FB2" mask="url(#mask-5)"></path>
        </g>
    </g>
</svg>