<?xml version="1.0" encoding="UTF-8"?>
<svg width="158px" height="140px" viewBox="0 0 158 140" version="1.1" xmlns="http://www.w3.org/2000/svg" xmlns:xlink="http://www.w3.org/1999/xlink">
    <!-- Generator: Sketch 50.2 (55047) - http://www.bohemiancoding.com/sketch -->
    <title>Page 1</title>
    <desc>Created with Sketch.</desc>
    <defs></defs>
    <g id="duplication" stroke="none" stroke-width="1" fill="none" fill-rule="evenodd">
        <g id="Duplicate-workspace--error" transform="translate(-582.000000, -284.000000)">
            <g id="Page-1" transform="translate(586.000000, 288.000000)">
                <path d="M69.2580446,3.313372 L0.898623969,121.611548 C-1.65463131,126.029377 1.53693779,131.550003 6.64344835,131.550003 L143.35564,131.550003 C148.462151,131.550003 151.65372,126.029377 149.100465,121.611548 L80.7410442,3.313372 C78.187789,-1.10445733 71.8112999,-1.10445733 69.2580446,3.313372 Z" id="Stroke-1" stroke="#bbdff5" stroke-width="7"></path>
                <path d="M76.6728909,104.571451 C75.7118593,104.253354 74.6664127,104.155977 73.6923942,104.467583 C72.0950037,104.857089 70.5560544,105.655578 69.5755424,106.986393 C67.7638679,109.290975 67.6924398,112.783552 69.5106078,115.101117 C70.8547534,116.795472 72.9911008,117.963992 75.1923827,117.912058 C75.6339378,117.879599 76.0689994,117.788714 76.4910742,117.678354 C78.322229,117.26288 79.9261129,116.068393 80.8741577,114.464923 C82.0689538,112.530373 82.1403818,109.985595 81.0235072,107.999111 C80.2183185,106.265805 78.5040458,105.07781 76.6728909,104.571451" id="Fill-3" fill="#bbdff5"></path>
                <path d="M81.2948459,48.165302 C79.2092007,46.2924435 76.2745909,45.5115343 73.5605782,45.7696314 C69.4227116,46.160086 65.732724,49.588145 65.1511498,53.9228528 C64.5628909,56.6361814 65.5990288,59.3296563 65.8329954,62.0231312 C67.1966865,71.3344806 68.6807033,80.6325943 70.0510791,89.9439438 C70.4855885,92.1609317 70.4321104,94.5632202 71.4014007,96.627997 C72.8252546,99.1626429 76.6823613,99.3876507 78.3201276,96.9721265 C79.4297978,95.31104 79.3027873,93.146995 79.730612,91.2410472 C80.0514805,89.1828882 80.399088,87.137965 80.6932174,85.079806 L82.1504952,75.7684566 C83.1264702,69.521183 84.0957604,63.2606737 85.0249421,57.0067823 C85.0717354,53.6846093 83.8350548,50.2697861 81.2948459,48.165302" id="Fill-5" fill="#bbdff5"></path>
            </g>
        </g>
    </g>
</svg>