<?xml version="1.0" encoding="UTF-8"?>
<svg width="42px" height="48px" viewBox="0 0 42 48" version="1.1" xmlns="http://www.w3.org/2000/svg" xmlns:xlink="http://www.w3.org/1999/xlink">
    <!-- Generator: Sketch 50.2 (55047) - http://www.bohemiancoding.com/sketch -->
    <title>Page 1@1x</title>
    <desc>Created with Sketch.</desc>
    <defs>
        <linearGradient x1="27.7636593%" y1="10.7754773%" x2="83.0906749%" y2="95.661968%" id="linearGradient-1">
            <stop stop-color="#FCFCFC" offset="0%"></stop>
            <stop stop-color="#FFF00C" offset="100%"></stop>
            <stop stop-color="#FFEF00" offset="100%"></stop>
        </linearGradient>
    </defs>
    <g id="Design" stroke="none" stroke-width="1" fill="none" fill-rule="evenodd">
        <g id="VE--02" transform="translate(-634.000000, -262.000000)">
            <g id="Group-7" transform="translate(443.000000, 262.000000)">
                <g id="Page-1" transform="translate(191.000000, 0.000000)">
                    <path d="M25.2897583,39 L15.1579239,39 C14.578962,39 14,39.5597126 14,40.1194252 C14,40.6819363 14.578962,41.2416489 15.1579239,41.2416489 L25.2897583,41.2416489 C25.8687203,41.2416489 26.4476822,40.6819363 26.4476822,40.1194252 C26.7371632,39.5597126 26.1582013,39 25.2897583,39" id="Fill-1" fill="#959FB2"></path>
                    <path d="M25.2897583,43 L15.1579239,43 C14.289481,43 14,43.5597126 14,44.1194252 C14,44.6819363 14.578962,45.2388504 15.1579239,45.2388504 L16.312953,45.2388504 C16.312953,46.6381318 17.4737718,47.4804993 18.9211767,47.4804993 L21.5265055,47.4804993 C22.9739105,47.4804993 24.1318344,46.3582755 24.1318344,45.2388504 L25.2897583,45.2388504 C25.8658255,45.2388504 26.4447874,44.6819363 26.4447874,44.1194252 C26.4447874,43.5597126 26.1582013,43 25.2897583,43" id="Fill-3" fill="#959FB2"></path>
                    <path d="M20.7371632,8 C27.3952258,8 33.4743264,13.5971259 33.1848455,20.0338207 C33.1848455,26.4705155 28.5531497,28.7093658 26.8191587,36.5453421 C26.8191587,37.1050547 25.9478209,37.6647673 25.3717537,37.6647673 L15.8159865,37.6647673 C15.2370246,37.6647673 14.6580626,37.1050547 14.3685816,36.5453421 C12.6316957,28.7093658 8,26.1906592 8,20.0338207 C8,13.3172696 13.7896196,8 20.7371632,8 Z" id="Fill-6" fill="url(#linearGradient-1)"></path>
                    <path d="M20.7371632,8 C13.7896196,8 8,13.3172696 8,20.0338207 C8,26.1906592 12.6316957,28.7093658 14.3685816,36.5453421 C14.6580626,37.1050547 15.2370246,37.6647673 15.8159865,37.6647673 L25.3717537,37.6647673 C25.9478209,37.6647673 26.8191587,37.1050547 26.8191587,36.5453421 C28.5531497,28.7093658 33.1848455,26.4705155 33.1848455,20.0338207 C33.4743264,13.5971259 27.3952258,8 20.7371632,8" id="Path" stroke="#DCCF00"></path>
                    <path d="M19,3.91798813 L19,1.39928147 C19,0.55971259 19.578962,0 20.4474049,0 C21.0263669,0 21.6053288,0.55971259 21.6053288,1.39928147 L21.6053288,3.91798813 C21.6053288,4.75755701 21.0263669,5.3172696 20.1579239,5.3172696 C19.578962,5.03741331 19,4.47770072 19,3.91798813" id="Fill-8" fill="#FFEF00"></path>
                    <path d="M7.43422147,7.09892221 C6.85525951,6.53920962 6.85525951,5.69964074 7.43422147,5.41978444 C8.01318344,4.86007185 8.88162638,4.86007185 9.17110737,5.41978444 L10.9079933,7.09892221 C11.4869552,7.6586348 11.4869552,8.49820369 10.9079933,8.77805998 C10.3290313,9.33777257 9.46058835,9.33777257 9.17110737,8.77805998 L7.43422147,7.09892221 Z" id="Fill-10" fill="#FFEF00"></path>
                    <path d="M38.4557795,28.2276756 C39.0347415,28.5103304 39.3271173,29.3471007 39.0347415,29.9096119 C38.7481553,30.4665259 37.8797124,30.7463822 37.3007504,30.4665259 L34.6925268,29.3471007 C34.1135648,29.0672444 33.8240838,28.2276756 34.1135648,27.667963 C34.4059406,27.1110489 35.2714887,26.8283941 35.8533455,27.1110489 L38.4557795,28.2276756 Z" id="Fill-12" fill="#FFEF00"></path>
                    <path d="M5.50013866,18.3992815 C5.50013866,19.2388504 4.9211767,19.7985629 4.05273375,19.7985629 L1.44740491,19.7985629 C0.578961965,19.7985629 0,19.2388504 0,18.3992815 C0,17.5597126 0.578961965,17 1.44740491,17 L4.05273375,17 C4.9211767,17.2798563 5.50013866,17.8395689 5.50013866,18.3992815" id="Fill-14" fill="#FFEF00"></path>
                    <path d="M41.5001387,18.3992815 C41.5001387,19.2388504 40.9211767,19.7985629 40.0527338,19.7985629 L37.4474049,19.7985629 C36.578962,19.7985629 36,19.2388504 36,18.3992815 C36,17.5597126 36.578962,17 37.4474049,17 L40.0527338,17 C40.9211767,17.2798563 41.5001387,17.8395689 41.5001387,18.3992815" id="Fill-16" fill="#FFEF00"></path>
                    <path d="M6.74526051,27.7263768 C7.03474149,28.2860894 6.74526051,29.1256583 6.16629854,29.4083132 L3.85045069,30.5249398 C3.27148872,30.8075946 2.40304577,30.5249398 2.11356479,29.9680258 C1.82408381,29.4083132 2.11356479,28.5687443 2.69252676,28.2860894 L5.00837462,27.1694628 C5.58733658,26.8868079 6.45577953,26.8868079 6.74526051,27.7263768" id="Fill-19" fill="#FFEF00"></path>
                    <path d="M29.4342215,9.05791628 C28.8552595,8.49820369 28.8552595,7.6586348 29.4342215,7.09892221 L31.1711074,5.41978444 C31.7500693,4.86007185 32.6185123,4.86007185 32.9079933,5.41978444 C33.1974742,5.97949703 33.4869552,6.81906592 32.9079933,7.09892221 L31.1711074,8.77805998 C30.8816264,9.61762887 30.0131834,9.61762887 29.4342215,9.05791628" id="Fill-21" fill="#FFEF00"></path>
                </g>
            </g>
        </g>
    </g>
</svg>