<?xml version="1.0" encoding="UTF-8"?>
<svg width="30px" height="30px" viewBox="0 0 30 30" version="1.1" xmlns="http://www.w3.org/2000/svg" xmlns:xlink="http://www.w3.org/1999/xlink">
    <!-- Generator: Sketch 49.2 (51160) - http://www.bohemiancoding.com/sketch -->
    <title>icon/em/clicks@1x</title>
    <desc>Created with Sketch.</desc>
    <defs>
        <polygon id="path-1" points="0 0.05 18.9996 0.05 18.9996 14.8394 0 14.8394"></polygon>
        <linearGradient x1="51.2069444%" y1="100.2%" x2="51.2069444%" y2="2.02692522%" id="linearGradient-3">
            <stop stop-color="#FFFFFF" offset="0%"></stop>
            <stop stop-color="#D5D7DA" offset="100%"></stop>
        </linearGradient>
    </defs>
    <g id="icon/em/clicks" stroke="none" stroke-width="1" fill="none" fill-rule="evenodd">
        <g id="icon-click" transform="translate(6.000000, 0.000000)">
            <g id="Group-3" transform="translate(0.000000, 0.950200)">
                <mask id="mask-2" fill="white">
                    <use xlink:href="#path-1"></use>
                </mask>
                <g id="Clip-2"></g>
                <path d="M17.1196,14.8394 C17.0286,14.8394 16.9366,14.8144 16.8536,14.7624 C16.6196,14.6154 16.5496,14.3064 16.6976,14.0724 C17.5496,12.7194 17.9996,11.1554 17.9996,9.5494 C17.9996,4.8624 14.1866,1.0494 9.4996,1.0494 C4.8126,1.0494 0.9996,4.8624 0.9996,9.5494 C0.9996,11.1464 1.4466,12.7044 2.2906,14.0554 C2.4376,14.2894 2.3666,14.5974 2.1326,14.7444 C1.8976,14.8914 1.5896,14.8204 1.4436,14.5854 C0.4986,13.0754 -0.0004,11.3344 -0.0004,9.5494 C-0.0004,4.3114 4.2616,0.0494 9.4996,0.0494 C14.7386,0.0494 18.9996,4.3114 18.9996,9.5494 C18.9996,11.3444 18.4956,13.0924 17.5426,14.6064 C17.4486,14.7564 17.2856,14.8394 17.1196,14.8394" id="Fill-1" fill="#959FB2" mask="url(#mask-2)"></path>
                <circle id="Oval" fill="url(#linearGradient-3)" opacity="0.637058424" mask="url(#mask-2)" cx="9" cy="9.0498" r="6"></circle>
            </g>
            <path d="M7.4697,25.9502 L15.2597,25.9502 C15.5397,24.4332 16.3607,20.0222 16.3607,20.0222 C16.5177,19.3432 16.1267,18.6792 15.4757,18.4902 L10.0447,16.8692 C9.8327,16.8062 9.6877,16.6112 9.6877,16.3902 L9.6877,9.8072 C9.6877,9.3202 9.2907,8.9232 8.8027,8.9232 C8.3157,8.9232 7.9187,9.3202 7.9187,9.8072 L7.9187,20.9112 C7.9187,21.1472 7.7537,21.3512 7.5227,21.4002 C7.2897,21.4532 7.0577,21.3312 6.9617,21.1162 C6.1097,19.2072 4.8037,18.4792 3.9447,18.4352 C3.5637,18.4172 3.2607,18.5292 3.1407,18.7382 C3.0017,18.9792 3.0907,19.3742 3.3827,19.8212 L7.4697,25.9502 Z M15.6757,26.9502 L7.2017,26.9502 C7.0347,26.9502 6.8787,26.8672 6.7857,26.7272 L2.5487,20.3722 C1.8537,19.3102 2.0777,18.5802 2.2737,18.2402 C2.5837,17.6982 3.2277,17.3932 3.9947,17.4372 C4.8667,17.4812 5.9787,17.9662 6.9187,19.1242 L6.9187,9.8072 C6.9187,8.7682 7.7637,7.9232 8.8027,7.9232 C9.8427,7.9232 10.6877,8.7682 10.6877,9.8072 L10.6877,16.0172 L15.7587,17.5312 C16.9147,17.8662 17.6117,19.0512 17.3397,20.2262 C17.3407,20.2262 16.3117,25.7462 16.1677,26.5392 C16.1247,26.7772 15.9177,26.9502 15.6757,26.9502 Z" id="Fill-4" fill="#959FB2"></path>
        </g>
    </g>
</svg>