<?xml version="1.0" encoding="UTF-8"?>
<svg width="30px" height="37px" viewBox="0 0 30 37" version="1.1" xmlns="http://www.w3.org/2000/svg" xmlns:xlink="http://www.w3.org/1999/xlink">
    <!-- Generator: Sketch 49 (51002) - http://www.bohemiancoding.com/sketch -->
    <title>gesture_pinch@1x</title>
    <desc>Created with Sketch.</desc>
    <defs>
        <polygon id="path-1" points="0.0688747573 0.230489922 1.05864175 0.230489922 1.05864175 0.427089922 0.0688747573 0.427089922"></polygon>
        <polygon id="path-3" points="0.136954369 0.2303 1.29067282 0.2303 1.29067282 0.42715 0.136954369 0.42715"></polygon>
        <polygon id="path-5" points="0.163148196 0.120589138 29.2113786 0.120589138 29.2113786 35.9359543 0.163148196 35.9359543"></polygon>
    </defs>
    <g id="Design" stroke="none" stroke-width="1" fill="none" fill-rule="evenodd">
        <g id="CEC-4-Apps---gestures-on-video" transform="translate(-237.000000, -1472.000000)">
            <g id="gesture_pinch" transform="translate(237.000000, 1472.000000)">
                <g id="Group-3">
                    <g>
                        <g id="Page-1">
                            <path d="M26.5010942,31.2461465 C26.7013951,30.735255 26.8963951,30.2065109 27.1947641,29.752976 C28.3772592,27.9585884 28.6548029,26.0012473 28.5499194,23.8855109 C28.3999777,20.859286 28.4208029,17.8247047 28.3632495,14.7939217 C28.3412883,13.6532473 27.9281913,13.0132085 27.0489874,12.7211078 C25.991065,12.370131 25.3337447,12.8449372 25.3216282,14.0011853 C25.3061039,15.4643481 25.3178417,16.9282705 25.3178417,18.4472705 L24.1610942,18.4472705 C24.1610942,16.3691388 24.1735893,14.3263326 24.1561718,12.2835264 C24.1467058,11.1485496 23.603735,10.5582705 22.534832,10.4401388 C21.4685796,10.3223868 20.9203078,10.789976 20.9089485,11.8717744 C20.8934243,13.333038 20.9051621,14.7946814 20.9051621,16.3034256 C20.507968,16.3216581 20.2122495,16.3353326 19.7593951,16.356224 C19.7593951,15.5338597 19.7601524,14.7544178 19.7593951,13.9745961 C19.7582592,12.566131 19.7730262,11.157286 19.7495505,9.74882093 C19.7298612,8.58231705 19.1554631,7.95063488 18.0081816,7.75881318 C17.0509777,7.5985186 16.490968,8.06154961 16.4879388,9.03699147 C16.4818806,10.8708829 16.4864243,12.7047744 16.4864243,14.6085574 L15.2694728,14.6085574 C15.2694728,13.3391155 15.2111621,12.0597977 15.2838612,10.7884566 C15.3785214,9.13157287 15.101735,7.69158062 13.8541136,6.44113101 C12.6064922,5.1906814 11.5440262,3.75524729 10.3812204,2.41781318 C9.72238544,1.66040233 9.06657961,1.61026279 8.31876408,2.20130155 C7.49938544,2.8496969 7.3161233,3.65154961 7.88976408,4.42757287 C8.90641456,5.80451085 9.95524951,7.15789845 11.0116573,8.50482868 C11.7568223,9.45482093 12.1396282,10.4940767 12.112366,11.7236349 C12.0673078,13.7436504 12.0888903,15.7655651 12.1036573,17.7867202 C12.1089583,18.5862938 11.9234243,19.247224 11.0877641,19.5336271 C10.2714146,19.8128132 9.72617184,19.3615574 9.29755049,18.7716581 C8.36685146,17.4900612 7.58647282,16.0781775 6.52892913,14.9177512 C5.87236602,14.1968054 4.83299709,13.8158209 3.93826893,13.3337977 C3.72736602,13.220224 3.39870583,13.2699837 3.13744369,13.3170845 C1.71754078,13.5731 1.44113301,14.2211155 2.3919,15.2937977 C4.23133689,17.368131 5.72015243,19.6631543 6.94126893,22.143162 C7.72316214,23.7312938 8.36495825,25.4094488 9.31686117,26.886286 C10.1282883,28.1450922 11.1797738,29.3096969 12.3266767,30.2748829 C14.2513078,31.8953016 15.0665214,33.9107589 15.1498223,36.3960845 L25.5934922,36.3960845 C25.5401039,34.5868829 25.8574049,32.8882163 26.5010942,31.2461465" id="Fill-1" fill="#FEFEFE"></path>
                            <g id="Group-5" transform="translate(14.097087, 36.165481)">
                                <mask id="mask-2" fill="white">
                                    <use xlink:href="#path-1"></use>
                                </mask>
                                <g id="Clip-4"></g>
                                <path d="M0.104845631,0.395489922 L1.05864175,0.395489922 C1.05750583,0.339989922 1.0544767,0.285489922 1.05296214,0.230489922 L0.0688747573,0.230489922 C0.0813699029,0.285489922 0.0923504854,0.340489922 0.104845631,0.395489922" id="Fill-3" fill="#231F20" mask="url(#mask-2)"></path>
                            </g>
                            <g id="Group-8" transform="translate(25.456311, 36.165481)">
                                <mask id="mask-4" fill="white">
                                    <use xlink:href="#path-3"></use>
                                </mask>
                                <g id="Clip-7"></g>
                                <path d="M0.138847573,0.4273 L1.29067282,0.4273 C1.28877961,0.3608 1.29029417,0.2963 1.28915825,0.2303 L0.136954369,0.2303 C0.138468932,0.2963 0.136954369,0.3613 0.138847573,0.4273" id="Fill-6" fill="#231F20" mask="url(#mask-4)"></path>
                            </g>
                            <g id="Group-11" transform="translate(0.466019, 0.460054)">
                                <mask id="mask-6" fill="white">
                                    <use xlink:href="#path-5"></use>
                                </mask>
                                <g id="Clip-10"></g>
                                <path d="M28.4770049,28.4157837 C28.9779466,27.3928612 29.1952864,26.1359543 29.2058883,24.9823651 C29.2392087,21.3096442 29.1161505,17.6354039 29.0491311,13.9619233 C29.0226262,12.5223109 28.1998398,11.426838 26.8037913,11.1081481 C26.2009951,10.9698845 25.5538981,11.0268612 24.8840825,10.993055 C24.1483835,8.92935736 22.5232573,8.5046907 20.5331214,8.89858992 C19.9257816,6.39921008 17.8746845,5.45985349 15.4638786,6.59027209 C13.9512087,4.82247364 12.4351311,3.02846589 10.8944417,1.2561093 C9.67256796,-0.149317054 8.39389806,-0.266309302 6.92098544,0.995535659 C5.84413107,1.91817907 5.44277184,3.44819457 6.54688835,4.8331093 C7.53665534,6.07482248 8.44880097,7.38034961 9.46658738,8.59775271 C10.2015291,9.4770938 10.4726359,10.4559543 10.4643058,11.5609233 C10.4499175,13.3674659 10.4457524,15.1743884 10.4298495,16.980931 C10.427199,17.2741713 10.3859272,17.5674116 10.3624515,17.8606519 C10.2753641,17.8929388 10.1882767,17.9252256 10.101568,17.9571326 C9.89975243,17.708714 9.67559709,17.4751093 9.50142233,17.2084581 C8.88348058,16.263024 8.35982039,15.2442798 7.65971359,14.3672178 C6.3681699,12.749838 4.85398544,11.426838 2.57191748,11.652086 C1.62531553,11.7455279 0.769587379,12.0968845 0.347781553,13.0313031 C-0.0698592233,13.9562256 0.26826699,14.8158147 0.889616505,15.4847217 C3.4905,18.2849388 5.18264563,21.6245357 6.7256068,25.0693496 C7.7619466,27.3848845 9.14133495,29.4398457 11.2549078,30.9523884 C11.8524029,31.3800938 12.4040825,32.0220318 12.7001796,32.6894194 C13.1447039,33.6918302 13.3703738,34.7926209 13.7001699,35.9359543 L14.6838786,35.9359543 C14.6005777,33.4506287 13.7853641,31.4351713 11.860733,29.8151326 C10.7138301,28.8499465 9.66234466,27.684962 8.85091748,26.4265357 C7.89863592,24.9493186 7.25721845,23.2711636 6.47532524,21.6830318 C5.25420874,19.203024 3.76501456,16.9080008 1.92595631,14.8336674 C0.97518932,13.7609853 1.25159709,13.1129698 2.6715,12.8569543 C2.93276214,12.8098535 3.26142233,12.7600938 3.47232524,12.8736674 C4.3670534,13.3560705 5.40604369,13.7366752 6.06298544,14.4576209 C7.12052913,15.6184271 7.90090777,17.029931 8.8316068,18.3115279 C9.26022816,18.9014271 9.80509223,19.3530628 10.6218204,19.0734969 C11.4574806,18.7870938 11.6430146,18.1261636 11.637335,17.3269698 C11.6229466,15.3054349 11.6013641,13.2835202 11.6464223,11.2635047 C11.6736845,10.0339465 11.2905,8.9946907 10.5457136,8.04469845 C9.48930583,6.69776822 8.44047087,5.34438062 7.42344175,3.96782248 C6.85017961,3.19141938 7.03344175,2.38956667 7.85282039,1.74117132 C8.60063592,1.15013256 9.25606311,1.20065194 9.9152767,1.95806279 C11.0780825,3.29511705 12.1401699,4.73093101 13.3877913,5.98100078 C14.6354126,7.23145039 14.9125777,8.67182248 14.8179175,10.3283264 C14.7448398,11.5996674 14.8035291,12.8793651 14.8035291,14.1484271 L16.0204806,14.1484271 C16.0204806,12.245024 16.0159369,10.4111326 16.0216165,8.57686124 C16.0250243,7.60141938 16.585034,7.13838837 17.5422379,7.29868295 C18.6891408,7.49050465 19.2639175,8.12218682 19.2836068,9.28907054 C19.3070825,10.6975357 19.2923155,12.1060008 19.2934515,13.5148457 C19.2942087,14.2942876 19.2934515,15.0737295 19.2934515,15.8960938 C19.7459272,15.8752023 20.0420243,15.8615279 20.4388398,15.8432953 C20.4388398,14.334931 20.4274806,12.8729078 20.4430049,11.4116442 C20.4543641,10.3298457 21.0026359,9.86225659 22.0688883,9.98000853 C23.1374126,10.0981403 23.6807621,10.6884194 23.6898495,11.8233961 C23.707267,13.8662023 23.6951505,15.9090085 23.6951505,17.9871403 L24.8518981,17.9871403 C24.8518981,16.4681403 24.8401602,15.0042178 24.8556845,13.541055 C24.867801,12.384807 25.5251214,11.9100008 26.5830437,12.2613574 C27.4618689,12.5530783 27.8753447,13.1931171 27.8973058,14.3337915 C27.9548592,17.3645744 27.9336553,20.3995357 28.0839757,23.4253806 C28.1888592,25.5414969 27.9113155,27.4984581 26.7288204,29.2932256 C26.4304515,29.7463806 26.2354515,30.2755047 26.0351505,30.7860163 C25.3914612,32.428086 25.0741602,34.1267527 25.1271699,35.9359543 L26.2793738,35.9359543 C26.2172767,33.1847372 27.3054903,30.8072876 28.4770049,28.4157837" id="Fill-9" fill="#231F20" mask="url(#mask-6)"></path>
                            </g>
                        </g>
                    </g>
                </g>
            </g>
        </g>
    </g>
</svg>