<svg xmlns="http://www.w3.org/2000/svg" viewBox="0 0 200 38.6"><defs><style>.cls-1{opacity:0.5;}.cls-2{fill:#fff;}</style></defs><title>logo</title><g id="Layer_2" data-name="Layer 2"><g id="Layer_1-2" data-name="Layer 1"><g class="cls-1"><path class="cls-2" d="M194.6,19.6a5.4,5.4,0,0,1-2.67-.68A5.28,5.28,0,0,1,190,17a5.19,5.19,0,0,1-.75-2.76,5.38,5.38,0,0,1,.68-2.65,5.19,5.19,0,0,1,1.92-2,5.38,5.38,0,0,1,2.8-.74,5.57,5.57,0,0,1,2.69.67,5.1,5.1,0,0,1,2,1.9,5.6,5.6,0,0,1,.06,5.45,5.21,5.21,0,0,1-1.92,1.95A5.39,5.39,0,0,1,194.6,19.6Zm0-1.31a3.86,3.86,0,0,0,2.86-1.15,4,4,0,0,0,1.13-2.9,4,4,0,0,0-1.13-2.9,4.11,4.11,0,0,0-5.7,0,4,4,0,0,0-1.13,2.9,4,4,0,0,0,1.13,2.9A3.83,3.83,0,0,0,194.6,18.29Zm-2-6.71h1.9a2.55,2.55,0,0,1,1.62.46,1.52,1.52,0,0,1,.58,1.27,1.66,1.66,0,0,1-.81,1.53L197,16.67h-1.5l-.81-1.5H194v1.5h-1.33ZM194,14h.52a1.14,1.14,0,0,0,.66-.15.58.58,0,0,0,.2-.49c0-.41-.29-.62-.86-.62H194Z"/></g><path class="cls-2" d="M18.88,38.37A21.17,21.17,0,0,1,9.11,36.2a16.14,16.14,0,0,1-6.68-6.29A18.57,18.57,0,0,1,0,20.28a18.82,18.82,0,0,1,2.36-9.42A17,17,0,0,1,9.11,4.25,20.61,20.61,0,0,1,19.25,1.82a23.8,23.8,0,0,1,5.91.77,18.93,18.93,0,0,1,5.16,2.08l-1.17,6a22.08,22.08,0,0,0-9.81-2.52,12.88,12.88,0,0,0-6.17,1.45,10.51,10.51,0,0,0-4.25,4.16,12.64,12.64,0,0,0-1.54,6.36,11.57,11.57,0,0,0,3.27,8.67A12.08,12.08,0,0,0,19.49,32a21.1,21.1,0,0,0,5.19-.7,24.11,24.11,0,0,0,5.19-2l.75,6.17a21,21,0,0,1-5.47,2.1A26.51,26.51,0,0,1,18.88,38.37Z"/><path class="cls-2" d="M34.86,0h6.5V37.85h-6.5V0Z"/><path class="cls-2" d="M49.63,9.21a3.77,3.77,0,0,1-2.78-1.1,3.65,3.65,0,0,1-1.1-2.69,3.58,3.58,0,0,1,1.1-2.66,4.13,4.13,0,0,1,5.56,0,3.58,3.58,0,0,1,1.1,2.66,3.63,3.63,0,0,1-1.1,2.71A3.81,3.81,0,0,1,49.63,9.21Zm-3.22,4.86h6.5V37.85h-6.5V14.07Z"/><path class="cls-2" d="M69.68,38.46A15,15,0,0,1,62.83,37a10.86,10.86,0,0,1-4.6-4.3,12.84,12.84,0,0,1-1.64-6.59,13.11,13.11,0,0,1,1.59-6.5,11.38,11.38,0,0,1,4.56-4.49,14.05,14.05,0,0,1,6.89-1.64,19.06,19.06,0,0,1,4.18.47,12.76,12.76,0,0,1,3.48,1.26L76.5,20.7a14.43,14.43,0,0,0-6.26-1.5A7.3,7.3,0,0,0,65,21a6.41,6.41,0,0,0-1.94,4.91,6.41,6.41,0,0,0,2,5,7.65,7.65,0,0,0,5.37,1.8,17.11,17.11,0,0,0,6.5-1.45l.65,5.33A12.66,12.66,0,0,1,74,38,18.86,18.86,0,0,1,69.68,38.46Z"/><path class="cls-2" d="M81.36,0h6.5V22.95l8.55-8.88h8L93.75,24.72l12.43,13.13H97.81L87.86,27V37.85h-6.5Z"/><path class="cls-2" d="M110.15,19.44h-4.63V14.07h4.63V7.62h6.5v6.45h5.65v5.37h-5.65V37.85h-6.5Z"/><path class="cls-2" d="M134.26,38.6a10.51,10.51,0,0,1-5.63-1.54,10.7,10.7,0,0,1-3.95-4.42A14.49,14.49,0,0,1,123.23,26a14,14,0,0,1,1.43-6.33,11.74,11.74,0,0,1,4-4.63,10.34,10.34,0,0,1,5.89-1.75,9.65,9.65,0,0,1,4.42,1,7.92,7.92,0,0,1,3.15,2.83l.09-3.08h6.22V37.85h-6.22l-.09-3a7.76,7.76,0,0,1-3.22,2.83A10.75,10.75,0,0,1,134.26,38.6ZM136,32.81a5.91,5.91,0,0,0,4.53-1.92,7,7,0,0,0,1.78-5A7,7,0,0,0,140.6,21a6.38,6.38,0,0,0-9.11,0,7,7,0,0,0-1.75,4.91,7,7,0,0,0,1.78,5A5.9,5.9,0,0,0,136,32.81Z"/><path class="cls-2" d="M153.52,0H160V37.85h-6.5V0Z"/><path class="cls-2" d="M177.54,38.6a16.59,16.59,0,0,1-7.27-1.5,11.15,11.15,0,0,1-4.84-4.37A12.85,12.85,0,0,1,163.7,26a13.81,13.81,0,0,1,1.5-6.47A11.25,11.25,0,0,1,169.45,15a12.18,12.18,0,0,1,6.4-1.66,11.91,11.91,0,0,1,5.91,1.43,10,10,0,0,1,4,4.09,13.19,13.19,0,0,1,1.43,6.31,15.48,15.48,0,0,1-.23,2.8H170.15q1.21,5.33,8.08,5.33a19.51,19.51,0,0,0,4.18-.44,15,15,0,0,0,3.67-1.29l.65,5.09a14.74,14.74,0,0,1-4.11,1.45A24.58,24.58,0,0,1,177.54,38.6Zm3.41-15.19a5.86,5.86,0,0,0-1.61-3.81,5.06,5.06,0,0,0-3.67-1.33A5.24,5.24,0,0,0,172,19.6a6.45,6.45,0,0,0-1.87,3.81Z"/></g></g></svg>