<?xml version="1.0" encoding="UTF-8"?>
<svg width="286px" height="154px" viewBox="0 0 286 154" version="1.1" xmlns="http://www.w3.org/2000/svg" xmlns:xlink="http://www.w3.org/1999/xlink">
    <!-- Generator: Sketch 49.1 (51147) - http://www.bohemiancoding.com/sketch -->
    <title>Page 1</title>
    <desc>Created with Sketch.</desc>
    <defs>
        <polygon id="path-1" points="0 154 286 154 286 0 0 0"></polygon>
    </defs>
    <g id="Design" stroke="none" stroke-width="1" fill="none" fill-rule="evenodd" opacity="0.491734601">
        <g id="CEC-4-Apps---no-video" transform="translate(-497.000000, -355.000000)">
            <g id="Page-1" transform="translate(497.000000, 355.000000)">
                <path d="M132.694996,53 C132.444122,53 132.35472,53.0033326 131.97248,53.0054533 C131.589936,53.0033326 131.544931,53 131.294057,53 C111.525527,53 88.2414234,54.8713872 80,58.5241823 L80.9733893,65.4998485 C82.4713323,73.0759825 103.482978,78 131.294057,78 C131.544931,78 131.589936,77.9984852 131.97248,77.9975763 C132.35472,77.9984852 132.444122,78 132.694996,78 C160.506379,78 181.539615,73.0759825 183.037558,65.4998485 L184,58.5241823 C175.758577,54.8713872 152.463525,53 132.694996,53" id="Fill-1" fill="#DEE5ED"></path>
                <path d="M131.970588,77.3720973 L132.696893,77.3745573 C146.255299,77.3745573 158.659479,76.1540915 167.624455,73.937942 C176.455629,71.7546951 181.686976,68.7107568 182.360248,65.3648539 L183.237423,58.9251979 C174.312374,55.2859404 150.972471,53.6254427 132.696893,53.6254427 C132.565226,53.6254427 132.478971,53.6263652 132.369858,53.6275952 L131.976989,53.6306702 L131.586558,53.6275952 C131.492988,53.6263652 131.420145,53.6254427 131.292439,53.6254427 C113.023566,53.6254427 89.6900643,55.2862479 80.7641014,58.9248904 L81.6513334,65.3642389 C82.3246057,68.7107568 87.5519905,71.7550026 96.3764596,73.937942 C105.335949,76.1540915 117.735863,77.3745573 131.292439,77.3745573 L131.970588,77.3720973 Z M132.696893,79 L131.970588,78.99754 L131.292439,79 C117.41218,79 105.205805,77.7952167 95.9930388,75.5166448 C86.3682016,73.1359831 80.8610233,69.7264279 80.0664462,65.6569785 L80.0588266,65.6117761 L79,57.9258243 L79.5537962,57.6773646 C88.2444643,53.7767325 112.465503,52 131.292439,52 C131.428374,52 131.505789,52.0009225 131.605455,52.0021525 L131.976989,52.0052275 L132.35279,52.00246 C132.467694,52.00123 132.55852,52 132.696893,52 C151.529011,52 175.756145,53.7767325 184.446509,57.6773646 L185,57.9255168 L183.94544,65.6569785 C183.150863,69.7261204 177.639418,73.1353681 168.007571,75.5166448 C158.789318,77.7952167 146.578676,79 132.696893,79 Z" id="Fill-3" fill="#557793"></path>
                <path d="M132,45 C103.372256,45 80,50.5965899 80,57.4998485 C80,64.4034101 103.372256,70 132,70 C160.627744,70 184,64.4034101 184,57.4998485 C184,50.5965899 160.627744,45 132,45" id="Fill-5" fill="#FFFFFF"></path>
                <path d="M131.999848,46.6254427 C118.153784,46.6254427 105.12578,47.9372359 95.3154733,50.3188201 C86.1078184,52.554342 80.6105246,55.6127328 80.6105246,58.4998463 C80.6105246,61.3872672 86.1078184,64.445658 95.3154733,66.6811799 C105.12578,69.0627641 118.153784,70.3742498 131.999848,70.3742498 C145.845911,70.3742498 158.87422,69.0627641 168.684527,66.6811799 C177.892182,64.445658 183.389475,61.3872672 183.389475,58.4998463 C183.389475,55.6127328 177.892182,52.554342 168.684527,50.3188201 C158.87422,47.9372359 145.845911,46.6254427 131.999848,46.6254427 M131.999848,72 C118.030695,72 104.868632,70.6722168 94.9385874,68.2614202 C87.6674619,66.4960651 79,63.369717 79,58.4998463 C79,53.630283 87.6674619,50.5039349 94.9385874,48.7385798 C104.868632,46.3277832 118.030695,45 131.999848,45 C145.969305,45 159.131063,46.3277832 169.061413,48.7385798 C176.332538,50.5039349 185,53.630283 185,58.4998463 C185,63.369717 176.332538,66.4960651 169.061413,68.2614202 C159.131063,70.6722168 145.969305,72 131.999848,72" id="Fill-7" fill="#557793"></path>
                <path d="M161,52.4797507 C161,56.0808188 148.687664,59 133.500152,59 C118.312336,59 106,56.0808188 106,52.4797507 C106,48.8789972 109.852596,47.8899936 125.030695,47.3273661 C160.693626,46.0057577 161,48.8789972 161,52.4797507" id="Fill-9" fill="#DEE5ED"></path>
                <path d="M162,50 L106,50 C106,35.6406239 118.535883,24 133.999847,24 C149.464117,24 162,35.6406239 162,50" id="Fill-11" fill="#FFFFFF"></path>
                <path d="M133.5,24.5508964 C118.898496,24.5508964 106.969815,35.649826 106.537942,49.4491036 L160.462664,49.4491036 C160.030185,35.6495177 148.1012,24.5508964 133.5,24.5508964 Z M105,51 L105,50.2248602 C105,35.2129234 117.785149,23 133.5,23 C149.214548,23 161.999697,35.2129234 162,50.2245518 L162,51 L105,51 Z" id="Fill-13" fill="#557793"></path>
                <path d="M133.870804,59 L133.483456,58.9988238 L133.123428,59 C121.062204,59 106.597963,57.3095651 105.528202,52.5461201 L105.519399,52.5011321 L105,49.2243524 L106.509323,49 L107.024472,52.2514923 C107.644047,54.8099327 116.98169,57.5209797 133.123428,57.5209797 L133.483456,57.5198036 L133.870804,57.5209797 C150.018917,57.5209797 159.36081,54.8102267 159.980993,52.2517863 L160.490374,49.0014702 L162,49.2231762 L161.477869,52.5461201 C160.407804,57.3095651 145.937492,59 133.870804,59" id="Fill-15" fill="#557793"></path>
                <path d="M159.853945,48.4629397 C161.556882,51.3797866 148.110241,54 132.989082,54 C117.867619,54 104.518929,51.03103 106.132683,48.4398064 C108.247372,45.0447735 109.495628,44.7985062 124.607416,44.274932 C160.11454,43.044767 158.53918,46.2111023 159.853945,48.4629397" id="Fill-17" fill="#FFFFFF"></path>
                <path d="M133.500151,55 C119.337473,55 105,52.3588489 105,48 L106.524084,48 C106.524084,48.9340391 108.499243,50.3382111 114.066646,51.5845305 C119.260527,52.7474092 126.162072,53.3644976 133.500151,53.3644976 C140.838231,53.3644976 147.739473,52.758929 152.933354,51.5960503 C158.500454,50.3497309 160.476219,48.9340391 160.476219,48 L162,48 C162,52.3588489 147.662829,55 133.500151,55" id="Fill-19" fill="#557793"></path>
                <path d="M106,60.5 C106,61.3285357 105.328536,62 104.5,62 C103.671464,62 103,61.3285357 103,60.5 C103,59.6717772 103.671464,59 104.5,59 C105.328536,59 106,59.6717772 106,60.5" id="Fill-21" fill="#557793"></path>
                <path d="M135,63.5 C135,64.3285357 134.328536,65 133.5,65 C132.671464,65 132,64.3285357 132,63.5 C132,62.6717772 132.671464,62 133.5,62 C134.328536,62 135,62.6717772 135,63.5" id="Fill-23" fill="#557793"></path>
                <path d="M164,60.5 C164,61.3285357 163.328606,62 162.499844,62 C161.671707,62 161,61.3285357 161,60.5 C161,59.6717772 161.671707,59 162.499844,59 C163.328606,59 164,59.6717772 164,60.5" id="Fill-25" fill="#557793"></path>
                <path d="M134,27.6039332 C134,28.1320223 132,28.1320223 132,27.6039332 L132,13.1004551 L134,13 L134,27.6039332 Z" id="Fill-27" fill="#557793"></path>
                <path d="M137,15.5 C137,17.4331713 135.433171,19 133.5,19 C131.56715,19 130,17.4331713 130,15.5 C130,13.5668287 131.56715,12 133.5,12 C135.433171,12 137,13.5668287 137,15.5" id="Fill-29" fill="#557793"></path>
                <mask id="mask-2" fill="white">
                    <use xlink:href="#path-1"></use>
                </mask>
                <g id="Clip-32"></g>
                <polygon id="Fill-31" fill="#557793" mask="url(#mask-2)" points="129 28 137 28 137 27 129 27"></polygon>
                <polygon id="Fill-33" fill="#557793" mask="url(#mask-2)" points="132 9 134 9 134 1 132 1"></polygon>
                <polygon id="Fill-34" fill="#557793" mask="url(#mask-2)" points="138.8192 12 137 10.7664052 142.1808 4 144 5.2335948"></polygon>
                <polygon id="Fill-35" fill="#557793" mask="url(#mask-2)" points="128.180716 12 130 10.7664052 124.819284 4 123 5.2335948"></polygon>
                <polygon id="Fill-36" fill="#557793" mask="url(#mask-2)" points="176.990735 154 171 74.0809987 172.009559 74 178 153.919001"></polygon>
                <polygon id="Fill-37" fill="#557793" mask="url(#mask-2)" points="89.0095166 154 88 153.919001 93.9904834 74 95 74.0809987"></polygon>
                <polygon id="Fill-38" fill="#557793" mask="url(#mask-2)" points="120 109 121 109 121 89 120 89"></polygon>
                <polygon id="Fill-39" fill="#557793" mask="url(#mask-2)" points="132 123 133 123 133 107 132 107"></polygon>
                <polygon id="Fill-40" fill="#557793" mask="url(#mask-2)" points="132 99 133 99 133 83 132 83"></polygon>
                <polygon id="Fill-41" fill="#557793" mask="url(#mask-2)" points="104 101 105 101 105 81 104 81"></polygon>
                <polygon id="Fill-42" fill="#557793" mask="url(#mask-2)" points="147 109 148 109 148 89 147 89"></polygon>
                <polygon id="Fill-43" fill="#557793" mask="url(#mask-2)" points="163 101 164 101 164 81 163 81"></polygon>
                <path d="M112.486191,48 L111,47.9239302 C111.570338,35.5762996 120.809332,29.2625033 121.202474,29 L122,30.3237398 C121.910071,30.3839098 113.018072,36.4847729 112.486191,48" id="Fill-44" fill="#557793" mask="url(#mask-2)"></path>
                <polygon id="Fill-45" fill="#557793" mask="url(#mask-2)" points="6 29 27 29 27 28 6 28"></polygon>
                <polygon id="Fill-46" fill="#557793" mask="url(#mask-2)" points="70 30 91 30 91 29 70 29"></polygon>
                <polygon id="Fill-47" fill="#557793" mask="url(#mask-2)" points="26 33 58 33 58 32 26 32"></polygon>
                <polygon id="Fill-48" fill="#557793" mask="url(#mask-2)" points="80 26 89 26 89 25 80 25"></polygon>
                <polygon id="Fill-49" fill="#557793" mask="url(#mask-2)" points="9 25 23 25 23 24 9 24"></polygon>
                <polygon id="Fill-50" fill="#557793" mask="url(#mask-2)" points="70 26 79 26 79 25 70 25"></polygon>
                <path d="M69.9596674,26 C69.5712442,21.0121937 65.8700317,17.2510811 61.3508316,17.2510811 C59.4882762,17.2510811 57.7303893,17.875336 56.2671474,19.0565273 L55.5934571,19.6006857 L55.4328242,18.7342709 C54.611509,14.2962328 51.0497537,11.0752269 46.9637482,11.0752269 C42.6266592,11.0752269 38.9414797,14.6630566 38.3915161,19.4205462 L38.2653694,20.5144727 L37.5060687,19.738751 C35.9381583,18.1368187 33.858098,17.2545093 31.6488659,17.2545093 C27.1296658,17.2545093 23.4287558,21.0143753 23.0403326,26 L22,25.9139818 C22.4322871,20.3642526 26.5806097,16.1792824 31.6488659,16.1792824 C33.8069738,16.1792824 35.855573,16.927578 37.5130265,18.3041801 C38.4931596,13.5058631 42.4061292,10 46.9637482,10 C51.296602,10 55.0997605,13.2029296 56.2786428,17.7260509 C57.7857487,16.7091044 59.5236699,16.1758541 61.3508316,16.1758541 C66.4190878,16.1758541 70.5674104,20.3623826 71,25.9139818 L69.9596674,26 Z" id="Fill-51" fill="#557793" mask="url(#mask-2)"></path>
                <polygon id="Fill-52" fill="#557793" mask="url(#mask-2)" points="265 90 286 90 286 89 265 89"></polygon>
                <polygon id="Fill-53" fill="#557793" mask="url(#mask-2)" points="202 91 223 91 223 90 202 90"></polygon>
                <polygon id="Fill-54" fill="#557793" mask="url(#mask-2)" points="244 94 276 94 276 93 244 93"></polygon>
                <polygon id="Fill-55" fill="#557793" mask="url(#mask-2)" points="229 94 238 94 238 93 229 93"></polygon>
                <polygon id="Fill-56" fill="#557793" mask="url(#mask-2)" points="270 87 284 87 284 86 270 86"></polygon>
                <polygon id="Fill-57" fill="#557793" mask="url(#mask-2)" points="214 87 223 87 223 86 214 86"></polygon>
                <path d="M268.95997,86 C268.571547,81.2498821 264.870334,77.6676215 260.351134,77.6676215 C258.142204,77.6676215 256.062144,78.5082531 254.493931,80.0348116 L253.734631,80.7732965 L253.608181,79.7313409 C253.042487,75.062881 249.781427,70.0244363 245.5,70.0244363 C241.394331,70.0244363 237.397566,74.803951 236.567176,79.0774834 L236.406845,79.9029711 L235.732853,79.3845173 C234.269611,78.2591221 232.511724,77.6643552 230.648866,77.6643552 C226.129968,77.6643552 222.429058,81.2478035 222.04003,86 L221,85.9180451 C221.43259,80.6286877 225.580912,76.639919 230.648866,76.639919 C232.476028,76.639919 234.213949,77.1479799 235.72045,78.1162949 C236.922625,73.6568794 241.021941,69 245.5,69 C250.053686,69 253.567645,73.8478105 254.495746,78.6611762 C256.151687,77.3534611 258.196959,76.6431853 260.351134,76.6431853 C265.41939,76.6431853 269.567713,80.6304693 270,85.9180451 L268.95997,86 Z" id="Fill-58" fill="#557793" mask="url(#mask-2)"></path>
                <polygon id="Fill-59" fill="#557793" mask="url(#mask-2)" points="48 123 64 123 64 122 48 122"></polygon>
                <polygon id="Fill-60" fill="#557793" mask="url(#mask-2)" points="0 123 25 123 25 122 0 122"></polygon>
                <polygon id="Fill-61" fill="#557793" mask="url(#mask-2)" points="26 126 33 126 33 125 26 125"></polygon>
                <polygon id="Fill-62" fill="#557793" mask="url(#mask-2)" points="52 120 63 120 63 119 52 119"></polygon>
                <polygon id="Fill-63" fill="#557793" mask="url(#mask-2)" points="7 120 14 120 14 119 7 119"></polygon>
                <path d="M51.1216614,120 C50.8117489,115.615031 47.881419,112.308589 44.3045004,112.308282 C42.565767,112.308282 40.9252688,113.078221 39.6850109,114.475767 L39.0232156,115.222086 L38.9188976,114.226687 C38.4809448,110.042945 35.5630844,106.888344 32.1315418,106.888344 C28.9007276,106.888344 26.0807982,109.719018 25.4266063,113.619018 L25.294308,114.406748 L24.7006387,113.877607 C23.5458423,112.84908 22.1608166,112.304908 20.6954996,112.304908 C17.1188852,112.304908 14.1882511,115.61319 13.8783386,119.999693 L13,119.93681 C13.343063,115.079755 16.6514314,111.416871 20.6954996,111.416871 C22.1392231,111.416871 23.5117793,111.87362 24.7055048,112.744785 C25.6480157,108.795092 28.6774933,106 32.1315418,106 C35.7619879,106 38.8778396,109.056135 39.664938,113.242638 C40.9797088,112.061043 42.5986135,111.419939 44.3045004,111.419939 C48.3488728,111.419939 51.6572411,115.081595 52,119.937117 L51.1216614,120 Z" id="Fill-64" fill="#557793" mask="url(#mask-2)"></path>
                <path d="M217.460773,123.409991 C219.106609,124.147411 220.297239,125.726356 220.949898,128.030638 C221.319383,126.76587 221.90051,125.668107 222.666379,124.82782 C223.200803,124.241602 223.821834,123.785828 224.511146,123.468551 C223.879178,123.169246 223.303372,122.746004 222.798212,122.206882 C221.967017,121.3195 221.339779,120.142107 220.950193,118.781599 C220.287484,120.983013 219.073503,122.596351 217.460773,123.409991 Z M220.494101,132 C220.493214,131.976142 220.492327,131.952904 220.491736,131.929047 C220.380003,128.926695 219.523684,124.003335 215.11794,124.003335 C215.084834,124.003335 215.051728,124.003645 215.018031,124.004265 L215,122.935316 C218.219253,122.86932 220.37557,119.754807 220.493805,115.001239 L220.493805,115 L221.512994,115.026956 L221.512994,115.027576 L221.512994,115.028815 C221.451807,117.643556 222.204375,120.046986 223.52595,121.457998 C224.451437,122.447008 225.623149,122.949259 226.993793,122.935316 L226.994088,122.935316 L227,124.004265 L226.999704,124.004265 C225.549844,124.01325 224.34,124.539049 223.403577,125.566169 C222.113629,126.981829 221.425204,129.282702 221.510333,131.887838 C221.51122,131.911696 221.512107,131.935863 221.512994,131.960031 L220.494101,132 Z" id="Fill-65" fill="#557793" mask="url(#mask-2)"></path>
                <path d="M41.4610079,142.409991 C43.1065077,143.147411 44.2971082,144.726356 44.9500468,147.030638 C45.3192275,145.76587 45.9006355,144.668107 46.6661905,143.82782 C47.200601,143.241602 47.8216168,142.785828 48.5109119,142.468551 C47.8789596,142.169246 47.3031676,141.746314 46.7980196,141.206882 C45.9671412,140.3195 45.3399182,139.142107 44.9503424,137.781599 C44.2876496,139.983013 43.0734026,141.596351 41.4610079,142.409991 Z M44.4939652,151 C44.4930785,150.976142 44.4921917,150.952594 44.491305,150.929047 C44.3798709,147.927005 43.5238682,143.003335 39.1182324,143.003335 C39.0848318,143.003335 39.0517267,143.003645 39.0180304,143.004265 L39,141.935316 C42.2197645,141.86932 44.376324,138.754497 44.4936696,134 L45.5131287,134.026956 L45.5131287,134.027576 C45.5131287,134.027886 45.5131287,134.028195 45.5128331,134.028505 C45.4516479,136.643246 46.2039017,139.046986 47.5257402,140.457998 C48.443815,141.438333 49.5983546,141.935316 50.9577319,141.935316 L50.9937928,141.935316 L51,143.004265 C49.5498793,143.01325 48.3397704,143.539049 47.4036652,144.566479 C46.1137494,145.981829 45.4253411,148.283012 45.5104685,150.887838 C45.5113552,150.911696 45.512242,150.935863 45.5128331,150.960031 L44.4939652,151 Z" id="Fill-66" fill="#557793" mask="url(#mask-2)"></path>
                <path d="M44.4610079,65.4098382 C46.1065077,66.1472443 47.2971082,67.726161 47.9500468,70.0304002 C48.3192275,68.7659656 48.9006355,67.6682219 49.6658949,66.8279507 C50.200601,66.241434 50.8213212,65.7856674 51.5109119,65.4683969 C50.8789596,65.1690967 50.3031676,64.7461726 49.7980196,64.2067507 C48.9671412,63.3193847 48.3399182,62.1420136 47.9503424,60.7815302 C47.2876496,62.9829044 46.0734026,64.5965226 44.4610079,65.4098382 Z M47.4939652,74 C47.4930785,73.9758329 47.4921917,73.9522855 47.491305,73.9284282 C47.3789842,70.9032041 46.5203212,65.9300503 42.0180304,66.0037909 L42,64.9351717 C45.2194689,64.8688671 47.3757328,61.7553401 47.4936696,57.0021688 L47.4936696,57.0009295 L47.4936696,57 L48.5131287,57.0272654 L48.5131287,57.0278851 L48.5131287,57.0285048 C48.4513523,59.6431982 49.2039017,62.0465845 50.5257402,63.4578807 C51.4506133,64.4456332 52.6184541,64.9534519 53.9887679,64.9351717 L53.9937928,64.9351717 L54,66.0037909 L53.9988177,66.0037909 C52.5492881,66.0133958 51.3394749,66.539185 50.4033696,67.5662864 C49.1134539,68.9819202 48.4253411,71.2827513 48.5104685,73.8872202 C48.5113552,73.9113873 48.512242,73.9355544 48.5128331,73.9597215 L47.4939652,74 Z" id="Fill-67" fill="#557793" mask="url(#mask-2)"></path>
                <path d="M193.000148,32 C192.856928,27.7500776 191.453135,23.3986266 187,23.473143 C190.623702,23.3986266 192.878233,19.9398206 193.000148,15 C192.899243,19.2701039 194.85609,23.5001552 199,23.473143 C194.749858,23.5001552 192.835623,27.6609683 193.000148,32" id="Fill-68" fill="#FFFFFF" mask="url(#mask-2)"></path>
                <path d="M189.460947,23.4098382 C191.106407,24.1472443 192.297569,25.7258511 192.9499,28.0304002 C193.319367,26.7656558 193.900466,25.6682219 194.666002,24.8279507 C195.200695,24.241434 195.8214,23.7856674 196.511269,23.4683969 C195.879332,23.1690967 195.303259,22.7461726 194.798123,22.2067507 C193.96697,21.3193847 193.339762,20.1423234 192.950491,18.7815302 C192.287519,20.9829044 191.073598,22.5965226 189.460947,23.4098382 Z M192.494125,32 C192.493239,31.9761427 192.492352,31.9522855 192.491465,31.9287381 C192.380034,28.9261318 191.523757,24.0031712 187.11823,24.0031712 C187.085125,24.0031712 187.052021,24.0034811 187.01803,24.0037909 L187,22.9351717 C190.219685,22.8691769 192.376192,19.7544106 192.49383,15 L193.512968,15.0272654 L193.512968,15.0278851 L193.512968,15.0281949 C193.451489,17.6431982 194.20402,20.0465845 195.525826,21.4581906 C196.443878,22.438507 197.598094,22.9351717 198.957437,22.9351717 C198.969851,22.9351717 198.992611,22.9333127 198.993793,22.9351717 L199,24.0041008 L198.999704,24.0041008 C197.549915,24.0133958 196.33954,24.5388751 195.403163,25.5662864 C194.11387,26.9816104 193.425478,29.2821317 193.510308,31.8862907 C193.511195,31.9107677 193.512082,31.9355544 193.512968,31.9597215 L192.494125,32 Z" id="Fill-69" fill="#557793" mask="url(#mask-2)"></path>
                <path d="M75,95.5 C75,96.3283485 74.3286736,97 73.5,97 C72.6716515,97 72,96.3283485 72,95.5 C72,94.6716515 72.6716515,94 73.5,94 C74.3286736,94 75,94.6716515 75,95.5" id="Fill-70" fill="#557793" mask="url(#mask-2)"></path>
                <path d="M24,86.5 C24,87.3283485 23.3286736,88 22.5,88 C21.6716515,88 21,87.3283485 21,86.5 C21,85.6716515 21.6716515,85 22.5,85 C23.3286736,85 24,85.6716515 24,86.5" id="Fill-71" fill="#557793" mask="url(#mask-2)"></path>
                <path d="M90,1.5 C90,2.3283485 89.3283485,3 88.5,3 C87.6716515,3 87,2.3283485 87,1.5 C87,0.671651495 87.6716515,0 88.5,0 C89.3283485,0 90,0.671651495 90,1.5" id="Fill-72" fill="#557793" mask="url(#mask-2)"></path>
                <path d="M258,40.5 C258,41.3283485 257.328674,42 256.5,42 C255.671651,42 255,41.3283485 255,40.5 C255,39.6716515 255.671651,39 256.5,39 C257.328674,39 258,39.6716515 258,40.5" id="Fill-73" fill="#557793" mask="url(#mask-2)"></path>
                <path d="M212,59.5 C212,60.3283485 211.328674,61 210.5,61 C209.671651,61 209,60.3283485 209,59.5 C209,58.6716515 209.671651,58 210.5,58 C211.328674,58 212,58.6716515 212,59.5" id="Fill-74" fill="#557793" mask="url(#mask-2)"></path>
                <path d="M170,20.5 C170,21.3283485 169.328674,22 168.5,22 C167.671651,22 167,21.3283485 167,20.5 C167,19.6716515 167.671651,19 168.5,19 C169.328674,19 170,19.6716515 170,20.5" id="Fill-75" fill="#557793" mask="url(#mask-2)"></path>
                <path d="M204,114.499837 C204,115.328276 203.328349,116 202.5,116 C201.671651,116 201,115.328276 201,114.499837 C201,113.671399 201.671651,113 202.5,113 C203.328349,113 204,113.671399 204,114.499837" id="Fill-76" fill="#557793" mask="url(#mask-2)"></path>
            </g>
        </g>
    </g>
</svg>