<?xml version="1.0" encoding="UTF-8"?>
<svg width="35px" height="34px" viewBox="0 0 35 34" version="1.1" xmlns="http://www.w3.org/2000/svg" xmlns:xlink="http://www.w3.org/1999/xlink">
    <!-- Generator: Sketch 49.1 (51147) - http://www.bohemiancoding.com/sketch -->
    <title>Group 8</title>
    <desc>Created with Sketch.</desc>
    <defs>
        <linearGradient x1="16.589539%" y1="0%" x2="80.6137745%" y2="100%" id="linearGradient-1">
            <stop stop-color="#FFFC7E" offset="0%"></stop>
            <stop stop-color="#FFF606" offset="100%"></stop>
        </linearGradient>
        <polygon id="path-2" points="0.9532 0.2873 5.3492 0.2873 5.3492 2 0.9532 2"></polygon>
        <polygon id="path-4" points="0.3975 0.9543 2.229 0.9543 2.229 1.9543 0.3975 1.9543"></polygon>
    </defs>
    <g id="-" stroke="none" stroke-width="1" fill="none" fill-rule="evenodd">
        <g id="PS-Action-+-applied-segments-+-date" transform="translate(-918.000000, -516.000000)">
            <g id="Group-8" transform="translate(919.000000, 517.000000)">
                <polygon id="Rectangle-5" stroke="#FEE958" fill="url(#linearGradient-1)" points="0 0 33 0 0 33"></polygon>
                <g id="Page-1" transform="translate(2.000000, 2.000000)">
                    <path d="M8.9092,13.9221 L5.3922,13.9221 C5.1502,13.9221 4.9532,14.1191 4.9532,14.3621 C4.9532,14.6051 5.1502,14.8011 5.3922,14.8011 L8.9092,14.8011 C9.1522,14.8011 9.3492,14.6051 9.3492,14.3621 C9.3492,14.1191 9.1522,13.9221 8.9092,13.9221" id="Fill-1" fill="#E8AD05"></path>
                    <g id="Group-5" transform="translate(4.000000, 15.000100)">
                        <mask id="mask-3" fill="white">
                            <use xlink:href="#path-2"></use>
                        </mask>
                        <g id="Clip-4"></g>
                        <path d="M4.9092,0.2873 L1.3922,0.2873 C1.1502,0.2873 0.9532,0.4833 0.9532,0.7273 C0.9532,0.9703 1.1502,1.1663 1.3922,1.1663 L1.8352,1.1663 C1.8592,1.6303 2.2422,2.0003 2.7112,2.0003 L3.5912,2.0003 C4.0612,2.0003 4.4442,1.6303 4.4682,1.1663 L4.9092,1.1663 C5.1522,1.1663 5.3492,0.9703 5.3492,0.7273 C5.3492,0.4843 5.1522,0.2873 4.9092,0.2873" id="Fill-3" fill="#E8AD05" mask="url(#mask-3)"></path>
                    </g>
                    <path d="M7.1514,2.8313 C4.7934,2.8313 2.7824,4.7573 2.7664,7.1363 C2.7664,9.3793 4.3834,10.2503 4.9954,13.0053 C5.0474,13.2423 5.2764,13.4363 5.5184,13.4363 L8.7844,13.4363 C9.0264,13.4363 9.2554,13.2423 9.3084,13.0053 C9.9204,10.2503 11.5374,9.3793 11.5374,7.1363 C11.5204,4.7573 9.5094,2.8313 7.1514,2.8313 M9.7884,9.6223 C9.3384,10.4063 8.8324,11.2883 8.5114,12.5603 L5.7914,12.5603 C5.4704,11.2873 4.9644,10.4063 4.5144,9.6223 C4.0094,8.7413 3.6434,8.1043 3.6434,7.1393 C3.6494,6.2313 4.0224,5.3723 4.6914,4.7203 C5.3624,4.0663 6.2354,3.7083 7.1514,3.7083 C8.0674,3.7083 8.9414,4.0663 9.6104,4.7203 C10.2804,5.3723 10.6524,6.2313 10.6604,7.1393 C10.6594,8.1043 10.2944,8.7413 9.7884,9.6223" id="Fill-6" fill="#E8AD05"></path>
                    <path d="M6.6934,1.3743 L6.6934,0.4583 C6.6934,0.2043 6.8974,0.0003 7.1514,0.0003 C7.4044,0.0003 7.6094,0.2043 7.6094,0.4583 L7.6094,1.3743 C7.6094,1.6273 7.4044,1.8323 7.1514,1.8323 C6.8974,1.8323 6.6934,1.6273 6.6934,1.3743" id="Fill-8" fill="#E8C205"></path>
                    <path d="M2.6172,2.5256 C2.4382,2.3466 2.4382,2.0566 2.6172,1.8786 C2.7972,1.6996 3.0862,1.6996 3.2642,1.8786 L3.9122,2.5256 C4.0922,2.7046 4.0922,2.9946 3.9122,3.1726 C3.7332,3.3516 3.4442,3.3516 3.2642,3.1726 L2.6172,2.5256 Z" id="Fill-10" fill="#E8AD05"></path>
                    <path d="M13.4551,10.1311 C13.6751,10.2571 13.7491,10.5371 13.6231,10.7571 C13.4971,10.9761 13.2171,11.0511 12.9971,10.9241 L12.2051,10.4661 C11.9851,10.3391 11.9101,10.0591 12.0371,9.8401 C12.1631,9.6211 12.4431,9.5461 12.6621,9.6731 L13.4551,10.1311 Z" id="Fill-12" fill="#E8AD05"></path>
                    <path d="M1.8321,6.4124 C1.8321,6.6654 1.6281,6.8704 1.3741,6.8704 L0.4581,6.8704 C0.2051,6.8704 0.0001,6.6654 0.0001,6.4124 C0.0001,6.1584 0.2051,5.9544 0.4581,5.9544 L1.3741,5.9544 C1.6281,5.9544 1.8321,6.1584 1.8321,6.4124" id="Fill-14" fill="#E8AD05"></path>
                    <g id="Group-18" transform="translate(12.000000, 5.000100)">
                        <mask id="mask-5" fill="white">
                            <use xlink:href="#path-4"></use>
                        </mask>
                        <g id="Clip-17"></g>
                        <path d="M2.2295,1.4123 C2.2295,1.6653 2.0245,1.8703 1.7715,1.8703 L0.8555,1.8703 C0.6025,1.8703 0.3975,1.6653 0.3975,1.4123 C0.3975,1.1583 0.6025,0.9543 0.8555,0.9543 L1.7715,0.9543 C2.0245,0.9543 2.2295,1.1583 2.2295,1.4123" id="Fill-16" fill="#E8C205" mask="url(#mask-5)"></path>
                    </g>
                    <path d="M2.2754,9.8567 C2.3974,10.0787 2.3174,10.3567 2.0944,10.4787 L1.2924,10.9197 C1.0704,11.0427 0.7924,10.9617 0.6704,10.7397 C0.5474,10.5187 0.6294,10.2397 0.8504,10.1177 L1.6534,9.6767 C1.8754,9.5547 2.1534,9.6347 2.2754,9.8567" id="Fill-19" fill="#E8C205"></path>
                    <path d="M10.3897,3.1731 C10.2107,2.9941 10.2107,2.7041 10.3897,2.5261 L11.0367,1.8781 C11.2167,1.6991 11.5067,1.6991 11.6857,1.8781 C11.8647,2.0571 11.8647,2.3471 11.6857,2.5261 L11.0367,3.1731 C10.8597,3.3521 10.5697,3.3521 10.3897,3.1731" id="Fill-21" fill="#E8AD05"></path>
                </g>
            </g>
        </g>
    </g>
</svg>